<svg width="96" height="96" viewBox="0 0 96 96" fill="none" xmlns="http://www.w3.org/2000/svg">
<rect width="96" height="96" fill="white"/>
<rect x="28" y="21.3333" width="40" height="66.6667" fill="#87C3ED"/>
<path d="M47.0667 8L28 21.3333L68 21.4667L47.0667 8Z" fill="#87C3ED"/>
<rect x="28" y="44" width="40" height="12.8" fill="white"/>
<g filter="url(#filter0_f_264_181)">
<path d="M48.1453 49.3455H48.4362V49.6364H48.1453V49.3455ZM48.4362 49.3455H48.7271V49.6364H48.4362V49.3455ZM48.7271 49.3455H49.018V49.6364H48.7271V49.3455ZM48.7271 49.6364H49.018V49.9273H48.7271V49.6364ZM48.7271 49.9273H49.018V50.2182H48.7271V49.9273ZM48.4362 49.9273H48.7271V50.2182H48.4362V49.9273ZM48.1453 49.9273H48.4362V50.2182H48.1453V49.9273ZM48.1453 50.2182H48.4362V50.5091H48.1453V50.2182ZM48.4362 50.5091H48.7271V50.8H48.4362V50.5091ZM48.1453 50.5091H48.4362V50.8H48.1453V50.5091ZM48.7271 50.5091H49.018V50.8H48.7271V50.5091ZM49.3078 50.5091H49.5987V50.8H49.3078V50.5091ZM49.5987 50.2182H49.8896V50.5091H49.5987V50.2182ZM49.8896 49.9273H50.1805V50.2182H49.8896V49.9273ZM50.1805 49.6364H50.4714V49.9273H50.1805V49.6364ZM50.4714 49.3455H50.7623V49.6364H50.4714V49.3455ZM49.3078 49.3455H49.5987V49.6364H49.3078V49.3455ZM50.4714 50.5091H50.7623V50.8H50.4714V50.5091Z" fill="#F24822"/>
</g>
<defs>
<filter id="filter0_f_264_181" x="47.8453" y="49.0455" width="3.21707" height="2.05459" filterUnits="userSpaceOnUse" color-interpolation-filters="sRGB">
<feFlood flood-opacity="0" result="BackgroundImageFix"/>
<feBlend mode="normal" in="SourceGraphic" in2="BackgroundImageFix" result="shape"/>
<feGaussianBlur stdDeviation="0.15" result="effect1_foregroundBlur_264_181"/>
</filter>
</defs>
</svg>
