<svg width="96" height="96" viewBox="0 0 96 96" fill="none" xmlns="http://www.w3.org/2000/svg">
<rect width="96" height="96" fill="white"/>
<rect x="28" y="21.3333" width="40" height="66.6667" fill="#7C74D9"/>
<path d="M47.0667 8L28 21.3333L68 21.4667L47.0667 8Z" fill="#7C74D9"/>
<rect x="28" y="44" width="40" height="12.8" fill="white"/>
<g filter="url(#filter0_f_264_188)">
<path d="M46.111 50.5091H46.4019V50.8H46.111V50.5091ZM46.111 50.2182H46.4019V50.5091H46.111V50.2182ZM46.111 49.9273H46.4019V50.2182H46.111V49.9273ZM46.111 49.6364H46.4019V49.9273H46.111V49.6364ZM46.4019 49.3455H46.6928V49.6364H46.4019V49.3455ZM46.6928 49.6364H46.9837V49.9273H46.6928V49.6364ZM46.6928 49.9273H46.9837V50.2182H46.6928V49.9273ZM46.6928 50.2182H46.9837V50.5091H46.6928V50.2182ZM46.6928 50.5091H46.9837V50.8H46.6928V50.5091ZM46.4019 49.9273H46.6928V50.2182H46.4019V49.9273ZM47.2735 49.3455H47.5644V49.6364H47.2735V49.3455ZM47.2735 49.6364H47.5644V49.9273H47.2735V49.6364ZM47.2735 49.9273H47.5644V50.2182H47.2735V49.9273ZM47.2735 50.2182H47.5644V50.5091H47.2735V50.2182ZM47.2735 50.5091H47.5644V50.8H47.2735V50.5091ZM47.8548 50.5091H48.1457V50.8H47.8548V50.5091ZM47.8548 50.2182H48.1457V50.5091H47.8548V50.2182ZM47.8548 49.9273H48.1457V50.2182H47.8548V49.9273ZM47.8548 49.6364H48.1457V49.9273H47.8548V49.6364ZM48.1457 49.6364H48.4366V49.9273H48.1457V49.6364ZM48.4366 49.9273H48.7275V50.2182H48.4366V49.9273ZM48.4366 50.2182H48.7275V50.5091H48.4366V50.2182ZM48.4366 50.5091H48.7275V50.8H48.4366V50.5091ZM48.7275 49.6364H49.0184V49.9273H48.7275V49.6364ZM49.0184 49.9273H49.3093V50.2182H49.0184V49.9273ZM49.0184 50.2182H49.3093V50.5091H49.0184V50.2182ZM49.0184 50.5091H49.3093V50.8H49.0184V50.5091ZM49.6016 49.9273H49.8925V50.2182H49.6016V49.9273ZM49.6016 50.2182H49.8925V50.5091H49.6016V50.2182ZM49.8925 50.5091H50.1834V50.8H49.8925V50.5091ZM50.1834 50.2182H50.4744V50.5091H50.1834V50.2182ZM50.1834 49.9273H50.4744V50.2182H50.1834V49.9273ZM49.8925 49.6364H50.1834V49.9273H49.8925V49.6364ZM50.7641 50.5091H51.055V50.8H50.7641V50.5091ZM50.7641 50.2182H51.055V50.5091H50.7641V50.2182ZM50.7641 49.9273H51.055V50.2182H50.7641V49.9273ZM50.7641 49.6364H51.055V49.9273H50.7641V49.6364ZM51.055 49.6364H51.3459V49.9273H51.055V49.6364ZM51.3459 49.9273H51.6369V50.2182H51.3459V49.9273ZM51.3459 50.2182H51.6369V50.5091H51.3459V50.2182ZM51.3459 50.5091H51.6369V50.8H51.3459V50.5091ZM52.5084 49.3455H52.7994V49.6364H52.5084V49.3455ZM52.5084 49.6364H52.7994V49.9273H52.5084V49.6364ZM52.5084 49.9273H52.7994V50.2182H52.5084V49.9273ZM52.5084 50.2182H52.7994V50.5091H52.5084V50.2182ZM52.5084 50.5091H52.7994V50.8H52.5084V50.5091ZM52.2175 49.6364H52.5084V49.9273H52.2175V49.6364ZM51.9266 49.9273H52.2175V50.2182H51.9266V49.9273ZM51.9266 50.2182H52.2175V50.5091H51.9266V50.2182ZM52.2175 50.5091H52.5084V50.8H52.2175V50.5091Z" fill="#F24822"/>
</g>
<defs>
<filter id="filter0_f_264_188" x="45.9111" y="49.1455" width="7.08823" height="1.85459" filterUnits="userSpaceOnUse" color-interpolation-filters="sRGB">
<feFlood flood-opacity="0" result="BackgroundImageFix"/>
<feBlend mode="normal" in="SourceGraphic" in2="BackgroundImageFix" result="shape"/>
<feGaussianBlur stdDeviation="0.1" result="effect1_foregroundBlur_264_188"/>
</filter>
</defs>
</svg>
