<svg width="96" height="96" viewBox="0 0 96 96" fill="none" xmlns="http://www.w3.org/2000/svg">
<rect width="96" height="96" fill="white"/>
<rect x="28" y="18" width="40" height="60" rx="5" fill="#A5977E"/>
<g filter="url(#filter0_f_264_267)">
<path d="M44.5109 46.7091H44.8018V47H44.5109V46.7091ZM44.5109 46.4182H44.8018V46.7091H44.5109V46.4182ZM44.5109 46.1273H44.8018V46.4182H44.5109V46.1273ZM44.5109 45.8364H44.8018V46.1273H44.5109V45.8364ZM44.8018 45.5455H45.0928V45.8364H44.8018V45.5455ZM45.0928 45.8364H45.3837V46.1273H45.0928V45.8364ZM45.0928 46.1273H45.3837V46.4182H45.0928V46.1273ZM45.0928 46.4182H45.3837V46.7091H45.0928V46.4182ZM45.0928 46.7091H45.3837V47H45.0928V46.7091ZM44.8018 46.1273H45.0928V46.4182H44.8018V46.1273ZM45.6734 45.5455H45.9643V45.8364H45.6734V45.5455ZM45.6734 45.8364H45.9643V46.1273H45.6734V45.8364ZM45.6734 46.1273H45.9643V46.4182H45.6734V46.1273ZM45.6734 46.4182H45.9643V46.7091H45.6734V46.4182ZM45.6734 46.7091H45.9643V47H45.6734V46.7091ZM46.2547 46.7091H46.5456V47H46.2547V46.7091ZM46.2547 46.4182H46.5456V46.7091H46.2547V46.4182ZM46.2547 46.1273H46.5456V46.4182H46.2547V46.1273ZM46.2547 45.8364H46.5456V46.1273H46.2547V45.8364ZM46.5456 45.8364H46.8365V46.1273H46.5456V45.8364ZM46.8365 46.1273H47.1274V46.4182H46.8365V46.1273ZM46.8365 46.4182H47.1274V46.7091H46.8365V46.4182ZM46.8365 46.7091H47.1274V47H46.8365V46.7091ZM47.1274 45.8364H47.4183V46.1273H47.1274V45.8364ZM47.4183 46.1273H47.7092V46.4182H47.4183V46.1273ZM47.4183 46.4182H47.7092V46.7091H47.4183V46.4182ZM47.4183 46.7091H47.7092V47H47.4183V46.7091ZM48.0016 46.1273H48.2925V46.4182H48.0016V46.1273ZM48.0016 46.4182H48.2925V46.7091H48.0016V46.4182ZM48.2925 46.7091H48.5834V47H48.2925V46.7091ZM48.5834 46.4182H48.8743V46.7091H48.5834V46.4182ZM48.5834 46.1273H48.8743V46.4182H48.5834V46.1273ZM48.2925 45.8364H48.5834V46.1273H48.2925V45.8364ZM49.1641 46.7091H49.455V47H49.1641V46.7091ZM49.1641 46.4182H49.455V46.7091H49.1641V46.4182ZM49.1641 46.1273H49.455V46.4182H49.1641V46.1273ZM49.1641 45.8364H49.455V46.1273H49.1641V45.8364ZM49.455 45.8364H49.7459V46.1273H49.455V45.8364ZM49.7459 46.1273H50.0368V46.4182H49.7459V46.1273ZM49.7459 46.4182H50.0368V46.7091H49.7459V46.4182ZM49.7459 46.7091H50.0368V47H49.7459V46.7091ZM50.9084 45.5455H51.1993V45.8364H50.9084V45.5455ZM50.9084 45.8364H51.1993V46.1273H50.9084V45.8364ZM50.9084 46.1273H51.1993V46.4182H50.9084V46.1273ZM50.9084 46.4182H51.1993V46.7091H50.9084V46.4182ZM50.9084 46.7091H51.1993V47H50.9084V46.7091ZM50.6175 45.8364H50.9084V46.1273H50.6175V45.8364ZM50.3266 46.1273H50.6175V46.4182H50.3266V46.1273ZM50.3266 46.4182H50.6175V46.7091H50.3266V46.4182ZM50.6175 46.7091H50.9084V47H50.6175V46.7091ZM45.5297 49.7091H45.8206V50H45.5297V49.7091ZM45.5297 49.4182H45.8206V49.7091H45.5297V49.4182ZM45.5297 49.1273H45.8206V49.4182H45.5297V49.1273ZM45.5297 48.8364H45.8206V49.1273H45.5297V48.8364ZM45.5297 48.5455H45.8206V48.8364H45.5297V48.5455ZM45.8206 48.5455H46.1115V48.8364H45.8206V48.5455ZM45.8206 49.1273H46.1115V49.4182H45.8206V49.1273ZM46.1115 48.5455H46.4024V48.8364H46.1115V48.5455ZM46.6922 48.5455H46.9831V48.8364H46.6922V48.5455ZM46.6922 48.8364H46.9831V49.1273H46.6922V48.8364ZM46.6922 49.1273H46.9831V49.4182H46.6922V49.1273ZM46.6922 49.4182H46.9831V49.7091H46.6922V49.4182ZM46.6922 49.7091H46.9831V50H46.6922V49.7091ZM47.2734 49.1273H47.5643V49.4182H47.2734V49.1273ZM47.2734 49.4182H47.5643V49.7091H47.2734V49.4182ZM47.5643 49.7091H47.8553V50H47.5643V49.7091ZM47.8553 49.4182H48.1462V49.7091H47.8553V49.4182ZM47.8553 49.1273H48.1462V49.4182H47.8553V49.1273ZM47.5643 48.8364H47.8553V49.1273H47.5643V48.8364ZM48.4359 48.8364H48.7268V49.1273H48.4359V48.8364ZM48.4359 49.1273H48.7268V49.4182H48.4359V49.1273ZM48.4359 49.4182H48.7268V49.7091H48.4359V49.4182ZM48.7268 49.7091H49.0178V50H48.7268V49.7091ZM49.0178 49.7091H49.3087V50H49.0178V49.7091ZM49.0178 49.4182H49.3087V49.7091H49.0178V49.4182ZM49.0178 49.1273H49.3087V49.4182H49.0178V49.1273ZM49.0178 48.8364H49.3087V49.1273H49.0178V48.8364ZM49.5984 48.8364H49.8893V49.1273H49.5984V48.8364ZM49.5984 49.1273H49.8893V49.4182H49.5984V49.1273ZM49.5984 49.4182H49.8893V49.7091H49.5984V49.4182ZM49.5984 49.7091H49.8893V50H49.5984V49.7091ZM49.8893 48.8364H50.1803V49.1273H49.8893V48.8364Z" fill="black"/>
</g>
<rect x="36" y="26" width="25" height="11" rx="2" fill="#906948"/>
<defs>
<filter id="filter0_f_264_267" x="44.311" y="45.3454" width="7.08823" height="4.85459" filterUnits="userSpaceOnUse" color-interpolation-filters="sRGB">
<feFlood flood-opacity="0" result="BackgroundImageFix"/>
<feBlend mode="normal" in="SourceGraphic" in2="BackgroundImageFix" result="shape"/>
<feGaussianBlur stdDeviation="0.1" result="effect1_foregroundBlur_264_267"/>
</filter>
</defs>
</svg>
