<svg width="96" height="96" viewBox="0 0 96 96" fill="none" xmlns="http://www.w3.org/2000/svg">
<rect width="96" height="96" fill="white"/>
<rect x="43" y="13" width="10" height="15" fill="black"/>
<path d="M41 12.6667C41 11.1939 42.1939 10 43.6667 10H52.3333C53.8061 10 55 11.1939 55 12.6667V12.6667C55 15.6122 52.6122 18 49.6667 18H46.3333C43.3878 18 41 15.6122 41 12.6667V12.6667Z" fill="black"/>
<path d="M38 27C38 25.8954 38.8954 25 40 25H56C57.1046 25 58 25.8954 58 27V89H38V27Z" fill="#717D5D"/>
<rect x="38" y="48" width="20" height="15" fill="black"/>
<g filter="url(#filter0_f_264_243)">
<path d="M43.7979 55.7091H44.0888V56H43.7979V55.7091ZM43.7979 55.4182H44.0888V55.7091H43.7979V55.4182ZM43.7979 55.1273H44.0888V55.4182H43.7979V55.1273ZM43.7979 54.8364H44.0888V55.1273H43.7979V54.8364ZM44.0888 54.5455H44.3797V54.8364H44.0888V54.5455ZM44.3797 54.8364H44.6706V55.1273H44.3797V54.8364ZM44.3797 55.1273H44.6706V55.4182H44.3797V55.1273ZM44.3797 55.4182H44.6706V55.7091H44.3797V55.4182ZM44.3797 55.7091H44.6706V56H44.3797V55.7091ZM44.0888 55.1273H44.3797V55.4182H44.0888V55.1273ZM44.9604 54.8364H45.2513V55.1273H44.9604V54.8364ZM44.9604 55.1273H45.2513V55.4182H44.9604V55.1273ZM44.9604 55.4182H45.2513V55.7091H44.9604V55.4182ZM45.2513 55.7091H45.5422V56H45.2513V55.7091ZM45.5422 54.8364H45.8331V55.1273H45.5422V54.8364ZM45.5422 55.1273H45.8331V55.4182H45.5422V55.1273ZM45.5422 55.4182H45.8331V55.7091H45.5422V55.4182ZM46.1229 55.1273H46.4138V55.4182H46.1229V55.1273ZM46.1229 55.4182H46.4138V55.7091H46.1229V55.4182ZM46.4138 55.7091H46.7047V56H46.4138V55.7091ZM46.7047 55.4182H46.9956V55.7091H46.7047V55.4182ZM46.7047 55.1273H46.9956V55.4182H46.7047V55.1273ZM46.4138 54.8364H46.7047V55.1273H46.4138V54.8364ZM47.5763 54.8364H47.8672V55.1273H47.5763V54.8364ZM47.2854 55.1273H47.5763V55.4182H47.2854V55.1273ZM47.2854 55.4182H47.5763V55.7091H47.2854V55.4182ZM47.5763 55.7091H47.8672V56H47.5763V55.7091ZM47.8672 54.8364H48.1581V55.1273H47.8672V54.8364ZM47.8672 55.7091H48.1581V56H47.8672V55.7091ZM49.0297 54.8364H49.3206V55.1273H49.0297V54.8364ZM49.0297 55.1273H49.3206V55.4182H49.0297V55.1273ZM49.0297 55.4182H49.3206V55.7091H49.0297V55.4182ZM49.0297 55.7091H49.3206V56H49.0297V55.7091ZM48.7388 54.8364H49.0297V55.1273H48.7388V54.8364ZM48.7388 55.7091H49.0297V56H48.7388V55.7091ZM48.4479 55.1273H48.7388V55.4182H48.4479V55.1273ZM48.4479 55.4182H48.7388V55.7091H48.4479V55.4182ZM50.1922 54.5455H50.4831V54.8364H50.1922V54.5455ZM50.1922 54.8364H50.4831V55.1273H50.1922V54.8364ZM50.1922 55.1273H50.4831V55.4182H50.1922V55.1273ZM50.1922 55.4182H50.4831V55.7091H50.1922V55.4182ZM50.1922 55.7091H50.4831V56H50.1922V55.7091ZM49.9013 54.8364H50.1922V55.1273H49.9013V54.8364ZM49.6104 55.1273H49.9013V55.4182H49.6104V55.1273ZM49.6104 55.4182H49.9013V55.7091H49.6104V55.4182ZM49.9013 55.7091H50.1922V56H49.9013V55.7091ZM50.7729 55.1273H51.0638V55.4182H50.7729V55.1273ZM50.7729 55.4182H51.0638V55.7091H50.7729V55.4182ZM51.0638 55.7091H51.3547V56H51.0638V55.7091ZM51.3547 55.4182H51.6456V55.7091H51.3547V55.4182ZM51.3547 55.1273H51.6456V55.4182H51.3547V55.1273ZM51.0638 54.8364H51.3547V55.1273H51.0638V54.8364Z" fill="#F24822"/>
</g>
<defs>
<filter id="filter0_f_264_243" x="43.5979" y="54.3454" width="8.2479" height="1.85459" filterUnits="userSpaceOnUse" color-interpolation-filters="sRGB">
<feFlood flood-opacity="0" result="BackgroundImageFix"/>
<feBlend mode="normal" in="SourceGraphic" in2="BackgroundImageFix" result="shape"/>
<feGaussianBlur stdDeviation="0.1" result="effect1_foregroundBlur_264_243"/>
</filter>
</defs>
</svg>
