<svg width="96" height="96" viewBox="0 0 96 96" fill="none" xmlns="http://www.w3.org/2000/svg">
<rect width="96" height="96" fill="white"/>
<rect x="8" y="8" width="80" height="80" fill="#0074B7"/>
<rect x="12.8" y="12.8" width="70.4" height="70.4" rx="3.2" fill="#008AEC"/>
<ellipse cx="24.3199" cy="22.24" rx="7.68" ry="5.28" fill="#239FF7"/>
<path d="M31.9999 22.72H16.6399L18.9829 31.68H29.3965L31.9999 22.72Z" fill="#0074B7"/>
<ellipse cx="48.0001" cy="22.24" rx="7.68" ry="5.28" fill="#239FF7"/>
<path d="M55.6801 22.72H40.3201L42.6631 31.68H53.0767L55.6801 22.72Z" fill="#0074B7"/>
<ellipse cx="71.68" cy="22.24" rx="7.68" ry="5.28" fill="#239FF7"/>
<path d="M79.36 22.72H64L66.3431 31.68H76.7566L79.36 22.72Z" fill="#0074B7"/>
<ellipse cx="24.3199" cy="45.9199" rx="7.68" ry="5.28" fill="#239FF7"/>
<path d="M31.9999 46.3999H16.6399L18.9829 55.3599H29.3965L31.9999 46.3999Z" fill="#0074B7"/>
<ellipse cx="48.0001" cy="45.9199" rx="7.68" ry="5.28" fill="#239FF7"/>
<path d="M55.6801 46.3999H40.3201L42.6631 55.3599H53.0767L55.6801 46.3999Z" fill="#0074B7"/>
<ellipse cx="71.68" cy="45.9199" rx="7.68" ry="5.28" fill="#239FF7"/>
<path d="M79.36 46.3999H64L66.3431 55.3599H76.7566L79.36 46.3999Z" fill="#0074B7"/>
<ellipse cx="24.3199" cy="69.6001" rx="7.68" ry="5.28" fill="#239FF7"/>
<path d="M31.9999 70.0801H16.6399L18.9829 79.0401H29.3965L31.9999 70.0801Z" fill="#0074B7"/>
<ellipse cx="48.0001" cy="69.6001" rx="7.68" ry="5.28" fill="#239FF7"/>
<path d="M55.6801 70.0801H40.3201L42.6631 79.0401H53.0767L55.6801 70.0801Z" fill="#0074B7"/>
<ellipse cx="71.68" cy="69.6001" rx="7.68" ry="5.28" fill="#239FF7"/>
<path d="M79.36 70.0801H64L66.3431 79.0401H76.7566L79.36 70.0801Z" fill="#0074B7"/>
<rect x="41.9199" y="83.2" width="11.84" height="4.8" fill="white"/>
<g filter="url(#filter0_f_264_63)">
<path d="M42.5801 84.7746H42.9291V85.1237H42.5801V84.7746ZM42.5801 85.1237H42.9291V85.4727H42.5801V85.1237ZM42.5801 85.4727H42.9291V85.8218H42.5801V85.4727ZM42.5801 85.8218H42.9291V86.1709H42.5801V85.8218ZM42.5801 86.1709H42.9291V86.52H42.5801V86.1709ZM42.9291 84.7746H43.2782V85.1237H42.9291V84.7746ZM43.2782 84.7746H43.6273V85.1237H43.2782V84.7746ZM43.2782 85.1237H43.6273V85.4727H43.2782V85.1237ZM43.2782 85.8218H43.6273V86.1709H43.2782V85.8218ZM43.2782 86.1709H43.6273V86.52H43.2782V86.1709ZM42.9291 86.1709H43.2782V86.52H42.9291V86.1709ZM42.9291 85.4727H43.2782V85.8218H42.9291V85.4727ZM43.9751 84.7746H44.3241V85.1237H43.9751V84.7746ZM43.9751 85.1237H44.3241V85.4727H43.9751V85.1237ZM43.9751 85.4727H44.3241V85.8218H43.9751V85.4727ZM43.9751 85.8218H44.3241V86.1709H43.9751V85.8218ZM43.9751 86.1709H44.3241V86.52H43.9751V86.1709ZM44.6726 85.1237H45.0216V85.4727H44.6726V85.1237ZM44.6726 85.4727H45.0216V85.8218H44.6726V85.4727ZM44.6726 85.8218H45.0216V86.1709H44.6726V85.8218ZM45.0216 86.1709H45.3707V86.52H45.0216V86.1709ZM45.3707 86.1709H45.7198V86.52H45.3707V86.1709ZM45.3707 85.8218H45.7198V86.1709H45.3707V85.8218ZM45.3707 85.4727H45.7198V85.8218H45.3707V85.4727ZM45.3707 85.1237H45.7198V85.4727H45.3707V85.1237ZM46.4166 85.1237H46.7657V85.4727H46.4166V85.1237ZM46.7657 85.4727H47.1148V85.8218H46.7657V85.4727ZM46.0676 85.4727H46.4166V85.8218H46.0676V85.4727ZM46.7657 85.8218H47.1148V86.1709H46.7657V85.8218ZM46.4166 85.8218H46.7657V86.1709H46.4166V85.8218ZM46.0676 85.8218H46.4166V86.1709H46.0676V85.8218ZM46.0676 86.1709H46.4166V86.52H46.0676V86.1709ZM46.4166 86.52H46.7657V86.8691H46.4166V86.52ZM47.4626 84.7746H47.8116V85.1237H47.4626V84.7746ZM47.4626 85.1237H47.8116V85.4727H47.4626V85.1237ZM47.4626 85.4727H47.8116V85.8218H47.4626V85.4727ZM47.4626 85.8218H47.8116V86.1709H47.4626V85.8218ZM47.4626 86.1709H47.8116V86.52H47.4626V86.1709ZM47.8116 85.1237H48.1607V85.4727H47.8116V85.1237ZM48.1607 85.4727H48.5098V85.8218H48.1607V85.4727ZM48.1607 85.8218H48.5098V86.1709H48.1607V85.8218ZM47.8116 86.1709H48.1607V86.52H47.8116V86.1709ZM49.2066 85.1237H49.5557V85.4727H49.2066V85.1237ZM49.5557 85.4727H49.9048V85.8218H49.5557V85.4727ZM48.8576 85.4727H49.2066V85.8218H48.8576V85.4727ZM49.5557 85.8218H49.9048V86.1709H49.5557V85.8218ZM49.2066 85.8218H49.5557V86.1709H49.2066V85.8218ZM48.8576 85.8218H49.2066V86.1709H48.8576V85.8218ZM48.8576 86.1709H49.2066V86.52H48.8576V86.1709ZM49.2066 86.52H49.5557V86.8691H49.2066V86.52ZM50.2526 85.1237H50.6016V85.4727H50.2526V85.1237ZM50.2526 85.4727H50.6016V85.8218H50.2526V85.4727ZM50.2526 85.8218H50.6016V86.1709H50.2526V85.8218ZM50.2526 86.1709H50.6016V86.52H50.2526V86.1709ZM50.6016 85.1237H50.9507V85.4727H50.6016V85.1237ZM51.2988 85.1237H51.6479V85.4727H51.2988V85.1237ZM51.2988 85.4727H51.6479V85.8218H51.2988V85.4727ZM51.2988 85.8218H51.6479V86.1709H51.2988V85.8218ZM51.2988 86.1709H51.6479V86.52H51.2988V86.1709ZM51.6479 85.1237H51.997V85.4727H51.6479V85.1237ZM52.3451 85.1237H52.6941V85.4727H52.3451V85.1237ZM52.3451 85.4727H52.6941V85.8218H52.3451V85.4727ZM52.3451 85.8218H52.6941V86.1709H52.3451V85.8218ZM53.0432 85.1237H53.3923V85.4727H53.0432V85.1237ZM53.0432 85.4727H53.3923V85.8218H53.0432V85.4727ZM53.0432 85.8218H53.3923V86.1709H53.0432V85.8218ZM52.6941 86.1709H53.0432V86.52H52.6941V86.1709ZM52.3451 86.52H52.6941V86.8691H52.3451V86.52Z" fill="#F24822"/>
</g>
<defs>
<filter id="filter0_f_264_63" x="42.2801" y="84.4747" width="11.4123" height="2.69448" filterUnits="userSpaceOnUse" color-interpolation-filters="sRGB">
<feFlood flood-opacity="0" result="BackgroundImageFix"/>
<feBlend mode="normal" in="SourceGraphic" in2="BackgroundImageFix" result="shape"/>
<feGaussianBlur stdDeviation="0.15" result="effect1_foregroundBlur_264_63"/>
</filter>
</defs>
</svg>
