<svg width="96" height="96" viewBox="0 0 96 96" fill="none" xmlns="http://www.w3.org/2000/svg">
<rect width="96" height="96" fill="white"/>
<rect x="28" y="18" width="40" height="60" rx="5" fill="#906948"/>
<g filter="url(#filter0_f_264_278)">
<path d="M44.9469 45.5455H45.2378V45.8364H44.9469V45.5455ZM44.9469 45.8364H45.2378V46.1273H44.9469V45.8364ZM44.9469 46.1273H45.2378V46.4182H44.9469V46.1273ZM44.9469 46.4182H45.2378V46.7091H44.9469V46.4182ZM44.9469 46.7091H45.2378V47H44.9469V46.7091ZM45.2378 45.5455H45.5287V45.8364H45.2378V45.5455ZM45.5287 45.5455H45.8196V45.8364H45.5287V45.5455ZM45.5287 45.8364H45.8196V46.1273H45.5287V45.8364ZM45.5287 46.4182H45.8196V46.7091H45.5287V46.4182ZM45.5287 46.7091H45.8196V47H45.5287V46.7091ZM45.2378 46.7091H45.5287V47H45.2378V46.7091ZM45.2378 46.1273H45.5287V46.4182H45.2378V46.1273ZM46.1094 45.8364H46.4003V46.1273H46.1094V45.8364ZM46.1094 46.1273H46.4003V46.4182H46.1094V46.1273ZM46.1094 46.4182H46.4003V46.7091H46.1094V46.4182ZM46.1094 46.7091H46.4003V47H46.1094V46.7091ZM46.4003 45.8364H46.6912V46.1273H46.4003V45.8364ZM46.9812 46.1273H47.2722V46.4182H46.9812V46.1273ZM46.9812 46.4182H47.2722V46.7091H46.9812V46.4182ZM47.2722 46.7091H47.5631V47H47.2722V46.7091ZM47.5631 46.4182H47.854V46.7091H47.5631V46.4182ZM47.5631 46.1273H47.854V46.4182H47.5631V46.1273ZM47.2722 45.8364H47.5631V46.1273H47.2722V45.8364ZM48.1438 45.8364H48.4347V46.1273H48.1438V45.8364ZM48.1438 46.1273H48.4347V46.4182H48.1438V46.1273ZM48.1438 46.4182H48.4347V46.7091H48.1438V46.4182ZM48.4347 46.7091H48.7256V47H48.4347V46.7091ZM48.7256 46.4182H49.0165V46.7091H48.7256V46.4182ZM48.7256 46.1273H49.0165V46.4182H48.7256V46.1273ZM48.7256 45.8364H49.0165V46.1273H48.7256V45.8364ZM49.0165 46.7091H49.3074V47H49.0165V46.7091ZM49.3074 46.4182H49.5983V46.7091H49.3074V46.4182ZM49.3074 46.1273H49.5983V46.4182H49.3074V46.1273ZM49.3074 45.8364H49.5983V46.1273H49.3074V45.8364ZM49.8906 46.7091H50.1815V47H49.8906V46.7091ZM49.8906 46.4182H50.1815V46.7091H49.8906V46.4182ZM49.8906 46.1273H50.1815V46.4182H49.8906V46.1273ZM49.8906 45.8364H50.1815V46.1273H49.8906V45.8364ZM50.1815 45.8364H50.4724V46.1273H50.1815V45.8364ZM50.4724 46.1273H50.7634V46.4182H50.4724V46.1273ZM50.4724 46.4182H50.7634V46.7091H50.4724V46.4182ZM50.4724 46.7091H50.7634V47H50.4724V46.7091ZM45.8209 48.5455H46.1118V48.8364H45.8209V48.5455ZM45.53 48.5455H45.8209V48.8364H45.53V48.5455ZM45.2391 48.8364H45.53V49.1273H45.2391V48.8364ZM45.2391 49.1273H45.53V49.4182H45.2391V49.1273ZM45.53 49.1273H45.8209V49.4182H45.53V49.1273ZM45.8209 49.1273H46.1118V49.4182H45.8209V49.1273ZM45.8209 49.4182H46.1118V49.7091H45.8209V49.4182ZM45.8209 49.7091H46.1118V50H45.8209V49.7091ZM45.53 49.7091H45.8209V50H45.53V49.7091ZM45.2391 49.7091H45.53V50H45.2391V49.7091ZM45.2391 48.5455H45.53V48.8364H45.2391V48.5455ZM46.4016 48.8364H46.6925V49.1273H46.4016V48.8364ZM46.4016 49.1273H46.6925V49.4182H46.4016V49.1273ZM46.4016 49.4182H46.6925V49.7091H46.4016V49.4182ZM46.6925 49.7091H46.9834V50H46.6925V49.7091ZM46.9834 49.7091H47.2743V50H46.9834V49.7091ZM46.9834 49.4182H47.2743V49.7091H46.9834V49.4182ZM46.9834 49.1273H47.2743V49.4182H46.9834V49.1273ZM46.9834 48.8364H47.2743V49.1273H46.9834V48.8364ZM48.1459 48.8364H48.4368V49.1273H48.1459V48.8364ZM48.1459 49.1273H48.4368V49.4182H48.1459V49.1273ZM48.1459 49.4182H48.4368V49.7091H48.1459V49.4182ZM48.1459 49.7091H48.4368V50H48.1459V49.7091ZM48.1459 50H48.4368V50.2909H48.1459V50ZM47.855 50H48.1459V50.2909H47.855V50ZM47.5641 50H47.855V50.2909H47.5641V50ZM47.855 48.8364H48.1459V49.1273H47.855V48.8364ZM47.5641 49.1273H47.855V49.4182H47.5641V49.1273ZM47.5641 49.4182H47.855V49.7091H47.5641V49.4182ZM49.3084 48.8364H49.5993V49.1273H49.3084V48.8364ZM49.3084 49.1273H49.5993V49.4182H49.3084V49.1273ZM49.3084 49.4182H49.5993V49.7091H49.3084V49.4182ZM49.3084 49.7091H49.5993V50H49.3084V49.7091ZM49.0175 48.8364H49.3084V49.1273H49.0175V48.8364ZM49.0175 49.7091H49.3084V50H49.0175V49.7091ZM48.7266 49.1273H49.0175V49.4182H48.7266V49.1273ZM48.7266 49.4182H49.0175V49.7091H48.7266V49.4182ZM49.8891 48.8364H50.18V49.1273H49.8891V48.8364ZM49.8891 49.1273H50.18V49.4182H49.8891V49.1273ZM49.8891 49.4182H50.18V49.7091H49.8891V49.4182ZM49.8891 49.7091H50.18V50H49.8891V49.7091ZM50.18 48.8364H50.4709V49.1273H50.18V48.8364Z" fill="black"/>
</g>
<rect x="28" y="71" width="40" height="1" fill="#C4A05E"/>
<rect x="28" y="23" width="40" height="1" fill="#C4A05E"/>
<defs>
<filter id="filter0_f_264_278" x="44.7468" y="45.3454" width="6.21665" height="5.14561" filterUnits="userSpaceOnUse" color-interpolation-filters="sRGB">
<feFlood flood-opacity="0" result="BackgroundImageFix"/>
<feBlend mode="normal" in="SourceGraphic" in2="BackgroundImageFix" result="shape"/>
<feGaussianBlur stdDeviation="0.1" result="effect1_foregroundBlur_264_278"/>
</filter>
</defs>
</svg>
