<svg width="96" height="96" viewBox="0 0 96 96" fill="none" xmlns="http://www.w3.org/2000/svg">
<rect width="96" height="96" fill="white"/>
<rect x="5" y="32" width="85" height="32.3" fill="#BE212F"/>
<rect x="10.1001" y="36.76" width="74.8" height="22.44" rx="3.4" fill="#D3525E"/>
<rect x="41.04" y="59.2" width="15.98" height="5.1" fill="white"/>
<g filter="url(#filter0_f_264_146)">
<path d="M45.6801 60.6852H46.051V61.0562H45.6801V60.6852ZM45.3092 60.6852H45.6801V61.0562H45.3092V60.6852ZM45.3092 61.0562H45.6801V61.4271H45.3092V61.0562ZM45.3092 61.4271H45.6801V61.798H45.3092V61.4271ZM45.3092 61.798H45.6801V62.1689H45.3092V61.798ZM45.3092 62.1689H45.6801V62.5398H45.3092V62.1689ZM45.6801 62.1689H46.051V62.5398H45.6801V62.1689ZM46.4209 60.6852H46.7918V61.0562H46.4209V60.6852ZM46.4209 61.0562H46.7918V61.4271H46.4209V61.0562ZM46.4209 61.4271H46.7918V61.798H46.4209V61.4271ZM46.4209 61.798H46.7918V62.1689H46.4209V61.798ZM46.4209 62.1689H46.7918V62.5398H46.4209V62.1689ZM46.7918 61.0562H47.1627V61.4271H46.7918V61.0562ZM47.1627 61.4271H47.5336V61.798H47.1627V61.4271ZM47.1627 61.798H47.5336V62.1689H47.1627V61.798ZM47.1627 62.1689H47.5336V62.5398H47.1627V62.1689ZM48.274 61.0562H48.6449V61.4271H48.274V61.0562ZM48.6449 61.4271H49.0158V61.798H48.6449V61.4271ZM47.9031 61.4271H48.274V61.798H47.9031V61.4271ZM48.6449 61.798H49.0158V62.1689H48.6449V61.798ZM48.274 61.798H48.6449V62.1689H48.274V61.798ZM47.9031 61.798H48.274V62.1689H47.9031V61.798ZM47.9031 62.1689H48.274V62.5398H47.9031V62.1689ZM48.274 62.5398H48.6449V62.9107H48.274V62.5398ZM49.3852 61.0562H49.7562V61.4271H49.3852V61.0562ZM49.3852 61.4271H49.7562V61.798H49.3852V61.4271ZM49.3852 61.798H49.7562V62.1689H49.3852V61.798ZM49.3852 62.1689H49.7562V62.5398H49.3852V62.1689ZM49.7562 61.0562H50.1271V61.4271H49.7562V61.0562ZM50.4969 61.0562H50.8678V61.4271H50.4969V61.0562ZM50.4969 61.4271H50.8678V61.798H50.4969V61.4271ZM50.4969 61.798H50.8678V62.1689H50.4969V61.798ZM50.4969 62.1689H50.8678V62.5398H50.4969V62.1689ZM50.8678 61.0562H51.2387V61.4271H50.8678V61.0562ZM51.6085 61.0562H51.9794V61.4271H51.6085V61.0562ZM51.6085 61.4271H51.9794V61.798H51.6085V61.4271ZM51.6085 61.798H51.9794V62.1689H51.6085V61.798ZM52.3503 61.0562H52.7213V61.4271H52.3503V61.0562ZM52.3503 61.4271H52.7213V61.798H52.3503V61.4271ZM52.3503 61.798H52.7213V62.1689H52.3503V61.798ZM51.9794 62.1689H52.3503V62.5398H51.9794V62.1689ZM51.6085 62.5398H51.9794V62.9107H51.6085V62.5398Z" fill="#F24822"/>
</g>
<circle cx="49.2" cy="47.98" r="8.5" fill="#A72D29"/>
<circle cx="49.2001" cy="47.9798" r="3.4" fill="#D3525E"/>
<circle cx="25.74" cy="47.98" r="8.5" fill="#A72D29"/>
<circle cx="25.7401" cy="47.9798" r="3.4" fill="#D3525E"/>
<circle cx="72.6599" cy="47.98" r="8.5" fill="#A72D29"/>
<circle cx="72.66" cy="47.9798" r="3.4" fill="#D3525E"/>
<defs>
<filter id="filter0_f_264_146" x="45.0093" y="60.3853" width="8.01187" height="2.82534" filterUnits="userSpaceOnUse" color-interpolation-filters="sRGB">
<feFlood flood-opacity="0" result="BackgroundImageFix"/>
<feBlend mode="normal" in="SourceGraphic" in2="BackgroundImageFix" result="shape"/>
<feGaussianBlur stdDeviation="0.15" result="effect1_foregroundBlur_264_146"/>
</filter>
</defs>
</svg>
