<svg width="96" height="96" viewBox="0 0 96 96" fill="none" xmlns="http://www.w3.org/2000/svg">
<rect width="96" height="96" fill="white"/>
<rect x="8" y="8" width="80" height="80" fill="#00A2AE"/>
<rect x="12.8" y="12.8" width="70.4" height="70.4" rx="3.2" fill="#52D7DC"/>
<ellipse cx="24.3199" cy="22.24" rx="7.68" ry="5.28" fill="#2BE4EB"/>
<path d="M31.9999 22.72H16.6399L18.9829 31.68H29.3965L31.9999 22.72Z" fill="#00A2AE"/>
<ellipse cx="48.0001" cy="22.24" rx="7.68" ry="5.28" fill="#2BE4EB"/>
<path d="M55.6801 22.72H40.3201L42.6631 31.68H53.0767L55.6801 22.72Z" fill="#00A2AE"/>
<ellipse cx="71.68" cy="22.24" rx="7.68" ry="5.28" fill="#2BE4EB"/>
<path d="M79.36 22.72H64L66.3431 31.68H76.7566L79.36 22.72Z" fill="#00A2AE"/>
<ellipse cx="24.3199" cy="45.9199" rx="7.68" ry="5.28" fill="#2BE4EB"/>
<path d="M31.9999 46.3999H16.6399L18.9829 55.3599H29.3965L31.9999 46.3999Z" fill="#00A2AE"/>
<ellipse cx="48.0001" cy="45.9199" rx="7.68" ry="5.28" fill="#2BE4EB"/>
<path d="M55.6801 46.3999H40.3201L42.6631 55.3599H53.0767L55.6801 46.3999Z" fill="#00A2AE"/>
<ellipse cx="71.68" cy="45.9199" rx="7.68" ry="5.28" fill="#2BE4EB"/>
<path d="M79.36 46.3999H64L66.3431 55.3599H76.7566L79.36 46.3999Z" fill="#00A2AE"/>
<ellipse cx="24.3199" cy="69.6001" rx="7.68" ry="5.28" fill="#2BE4EB"/>
<path d="M31.9999 70.0801H16.6399L18.9829 79.0401H29.3965L31.9999 70.0801Z" fill="#00A2AE"/>
<ellipse cx="48.0001" cy="69.6001" rx="7.68" ry="5.28" fill="#2BE4EB"/>
<path d="M55.6801 70.0801H40.3201L42.6631 79.0401H53.0767L55.6801 70.0801Z" fill="#00A2AE"/>
<ellipse cx="71.68" cy="69.6001" rx="7.68" ry="5.28" fill="#2BE4EB"/>
<path d="M79.36 70.0801H64L66.3431 79.0401H76.7566L79.36 70.0801Z" fill="#00A2AE"/>
<rect x="41.9199" y="83.2" width="11.84" height="4.8" fill="white"/>
<g filter="url(#filter0_f_264_96)">
<path d="M45.5426 86.1709H45.8916V86.52H45.5426V86.1709ZM45.5426 85.8218H45.8916V86.1709H45.5426V85.8218ZM45.5426 85.4727H45.8916V85.8218H45.5426V85.4727ZM45.5426 85.1237H45.8916V85.4727H45.5426V85.1237ZM46.2407 86.1709H46.5898V86.52H46.2407V86.1709ZM46.2407 85.8218H46.5898V86.1709H46.2407V85.8218ZM46.2407 85.4727H46.5898V85.8218H46.2407V85.4727ZM46.2407 85.1237H46.5898V85.4727H46.2407V85.1237ZM46.9389 86.1709H47.288V86.52H46.9389V86.1709ZM46.9389 85.8218H47.288V86.1709H46.9389V85.8218ZM46.9389 85.4727H47.288V85.8218H46.9389V85.4727ZM46.9389 85.1237H47.288V85.4727H46.9389V85.1237ZM46.5898 84.7746H46.9389V85.1237H46.5898V84.7746ZM45.8916 84.7746H46.2407V85.1237H45.8916V84.7746ZM45.5426 84.7746H45.8916V85.1237H45.5426V84.7746ZM47.6388 86.1709H47.9879V86.52H47.6388V86.1709ZM47.6388 85.8218H47.9879V86.1709H47.6388V85.8218ZM47.6388 85.4727H47.9879V85.8218H47.6388V85.4727ZM47.6388 84.7746H47.9879V85.1237H47.6388V84.7746ZM48.3363 86.1709H48.6854V86.52H48.3363V86.1709ZM48.3363 85.8218H48.6854V86.1709H48.3363V85.8218ZM48.3363 85.4727H48.6854V85.8218H48.3363V85.4727ZM48.3363 85.1237H48.6854V85.4727H48.3363V85.1237ZM48.6854 85.1237H49.0345V85.4727H48.6854V85.1237ZM49.0345 85.4727H49.3836V85.8218H49.0345V85.4727ZM49.0345 85.8218H49.3836V86.1709H49.0345V85.8218ZM49.0345 86.1709H49.3836V86.52H49.0345V86.1709ZM49.7313 84.7746H50.0804V85.1237H49.7313V84.7746ZM49.7313 85.1237H50.0804V85.4727H49.7313V85.1237ZM49.7313 85.4727H50.0804V85.8218H49.7313V85.4727ZM49.7313 85.8218H50.0804V86.1709H49.7313V85.8218ZM49.7313 86.1709H50.0804V86.52H49.7313V86.1709ZM50.0804 86.1709H50.4295V86.52H50.0804V86.1709ZM50.0804 85.1237H50.4295V85.4727H50.0804V85.1237Z" fill="#F24822"/>
</g>
<defs>
<filter id="filter0_f_264_96" x="45.2425" y="84.4747" width="5.48696" height="2.34536" filterUnits="userSpaceOnUse" color-interpolation-filters="sRGB">
<feFlood flood-opacity="0" result="BackgroundImageFix"/>
<feBlend mode="normal" in="SourceGraphic" in2="BackgroundImageFix" result="shape"/>
<feGaussianBlur stdDeviation="0.15" result="effect1_foregroundBlur_264_96"/>
</filter>
</defs>
</svg>
