<svg width="96" height="96" viewBox="0 0 96 96" fill="none" xmlns="http://www.w3.org/2000/svg">
<rect width="96" height="96" fill="white"/>
<rect x="43" y="13" width="10" height="15" fill="black"/>
<path d="M41 12.6667C41 11.1939 42.1939 10 43.6667 10H52.3333C53.8061 10 55 11.1939 55 12.6667V12.6667C55 15.6122 52.6122 18 49.6667 18H46.3333C43.3878 18 41 15.6122 41 12.6667V12.6667Z" fill="black"/>
<path d="M38 27C38 25.8954 38.8954 25 40 25H56C57.1046 25 58 25.8954 58 27V89H38V27Z" fill="#556B2F"/>
<rect x="38" y="48" width="20" height="15" fill="black"/>
<g filter="url(#filter0_f_264_236)">
<path d="M45.5417 54.5455H45.8326V54.8364H45.5417V54.5455ZM45.8326 54.5455H46.1235V54.8364H45.8326V54.5455ZM46.1235 54.5455H46.4144V54.8364H46.1235V54.5455ZM46.1235 54.8364H46.4144V55.1273H46.1235V54.8364ZM46.1235 55.1273H46.4144V55.4182H46.1235V55.1273ZM46.1235 55.4182H46.4144V55.7091H46.1235V55.4182ZM46.1235 55.7091H46.4144V56H46.1235V55.7091ZM45.8326 55.7091H46.1235V56H45.8326V55.7091ZM45.5417 55.7091H45.8326V56H45.5417V55.7091ZM45.5417 55.4182H45.8326V55.7091H45.5417V55.4182ZM45.5417 55.1273H45.8326V55.4182H45.5417V55.1273ZM45.5417 54.8364H45.8326V55.1273H45.5417V54.8364ZM46.7042 54.5455H46.9951V54.8364H46.7042V54.5455ZM46.7042 54.8364H46.9951V55.1273H46.7042V54.8364ZM46.7042 55.1273H46.9951V55.4182H46.7042V55.1273ZM46.7042 55.4182H46.9951V55.7091H46.7042V55.4182ZM46.7042 55.7091H46.9951V56H46.7042V55.7091ZM47.2854 55.7091H47.5763V56H47.2854V55.7091ZM47.2854 55.4182H47.5763V55.7091H47.2854V55.4182ZM47.2854 55.1273H47.5763V55.4182H47.2854V55.1273ZM47.2854 54.5455H47.5763V54.8364H47.2854V54.5455ZM47.8667 54.8364H48.1576V55.1273H47.8667V54.8364ZM47.8667 55.1273H48.1576V55.4182H47.8667V55.1273ZM47.8667 55.4182H48.1576V55.7091H47.8667V55.4182ZM48.1576 55.7091H48.4485V56H48.1576V55.7091ZM48.4485 54.8364H48.7394V55.1273H48.4485V54.8364ZM48.4485 55.1273H48.7394V55.4182H48.4485V55.1273ZM48.4485 55.4182H48.7394V55.7091H48.4485V55.4182ZM49.3201 54.8364H49.611V55.1273H49.3201V54.8364ZM49.611 55.1273H49.9019V55.4182H49.611V55.1273ZM49.0292 55.1273H49.3201V55.4182H49.0292V55.1273ZM49.611 55.4182H49.9019V55.7091H49.611V55.4182ZM49.3201 55.4182H49.611V55.7091H49.3201V55.4182ZM49.0292 55.4182H49.3201V55.7091H49.0292V55.4182ZM49.0292 55.7091H49.3201V56H49.0292V55.7091ZM49.3201 56H49.611V56.2909H49.3201V56Z" fill="#F24822"/>
</g>
<defs>
<filter id="filter0_f_264_236" x="45.3416" y="54.3454" width="4.76023" height="2.14561" filterUnits="userSpaceOnUse" color-interpolation-filters="sRGB">
<feFlood flood-opacity="0" result="BackgroundImageFix"/>
<feBlend mode="normal" in="SourceGraphic" in2="BackgroundImageFix" result="shape"/>
<feGaussianBlur stdDeviation="0.1" result="effect1_foregroundBlur_264_236"/>
</filter>
</defs>
</svg>
