<svg width="96" height="96" viewBox="0 0 96 96" fill="none" xmlns="http://www.w3.org/2000/svg">
<rect width="96" height="96" fill="white"/>
<rect x="5" y="32" width="85" height="32.3" fill="#F24822"/>
<rect x="10.1001" y="36.76" width="74.8" height="22.44" rx="3.4" fill="#F49B00"/>
<rect x="39" y="59.2" width="16.66" height="5.1" fill="white"/>
<g filter="url(#filter0_f_264_163)">
<path d="M40.0737 60.6852H40.4446V61.0562H40.0737V60.6852ZM40.4446 60.6852H40.8155V61.0562H40.4446V60.6852ZM40.8155 60.6852H41.1864V61.0562H40.8155V60.6852ZM40.8155 61.0562H41.1864V61.4271H40.8155V61.0562ZM40.8155 61.4271H41.1864V61.798H40.8155V61.4271ZM40.8155 61.798H41.1864V62.1689H40.8155V61.798ZM40.8155 62.1689H41.1864V62.5398H40.8155V62.1689ZM40.4446 62.1689H40.8155V62.5398H40.4446V62.1689ZM40.0737 62.1689H40.4446V62.5398H40.0737V62.1689ZM40.0737 61.798H40.4446V62.1689H40.0737V61.798ZM40.0737 61.4271H40.4446V61.798H40.0737V61.4271ZM40.0737 61.0562H40.4446V61.4271H40.0737V61.0562ZM41.5559 61.0562H41.9268V61.4271H41.5559V61.0562ZM41.5559 61.4271H41.9268V61.798H41.5559V61.4271ZM41.5559 61.798H41.9268V62.1689H41.5559V61.798ZM41.5559 62.1689H41.9268V62.5398H41.5559V62.1689ZM41.9268 61.0562H42.2977V61.4271H41.9268V61.0562ZM43.4094 61.0562H43.7803V61.4271H43.4094V61.0562ZM43.4094 61.4271H43.7803V61.798H43.4094V61.4271ZM43.4094 61.798H43.7803V62.1689H43.4094V61.798ZM43.4094 62.1689H43.7803V62.5398H43.4094V62.1689ZM43.0385 61.0562H43.4094V61.4271H43.0385V61.0562ZM43.0385 62.1689H43.4094V62.5398H43.0385V62.1689ZM42.6675 61.4271H43.0385V61.798H42.6675V61.4271ZM42.6675 61.798H43.0385V62.1689H42.6675V61.798ZM44.1497 62.1689H44.5206V62.5398H44.1497V62.1689ZM44.1497 61.798H44.5206V62.1689H44.1497V61.798ZM44.1497 61.4271H44.5206V61.798H44.1497V61.4271ZM44.1497 61.0562H44.5206V61.4271H44.1497V61.0562ZM44.5206 61.0562H44.8916V61.4271H44.5206V61.0562ZM44.8916 61.4271H45.2625V61.798H44.8916V61.4271ZM44.8916 61.798H45.2625V62.1689H44.8916V61.798ZM44.8916 62.1689H45.2625V62.5398H44.8916V62.1689ZM46.3737 61.0562H46.7447V61.4271H46.3737V61.0562ZM46.3737 61.4271H46.7447V61.798H46.3737V61.4271ZM46.3737 61.798H46.7447V62.1689H46.3737V61.798ZM46.3737 62.1689H46.7447V62.5398H46.3737V62.1689ZM46.3737 62.5398H46.7447V62.9107H46.3737V62.5398ZM46.0028 62.5398H46.3737V62.9107H46.0028V62.5398ZM45.6319 62.5398H46.0028V62.9107H45.6319V62.5398ZM46.0028 61.0562H46.3737V61.4271H46.0028V61.0562ZM45.6319 61.4271H46.0028V61.798H45.6319V61.4271ZM45.6319 61.798H46.0028V62.1689H45.6319V61.798ZM47.485 61.0562H47.8559V61.4271H47.485V61.0562ZM47.8559 61.4271H48.2268V61.798H47.8559V61.4271ZM47.1141 61.4271H47.485V61.798H47.1141V61.4271ZM47.8559 61.798H48.2268V62.1689H47.8559V61.798ZM47.485 61.798H47.8559V62.1689H47.485V61.798ZM47.1141 61.798H47.485V62.1689H47.1141V61.798ZM47.1141 62.1689H47.485V62.5398H47.1141V62.1689ZM47.485 62.5398H47.8559V62.9107H47.485V62.5398ZM49.7079 60.6852H50.0788V61.0562H49.7079V60.6852ZM50.0788 60.6852H50.4498V61.0562H50.0788V60.6852ZM50.4498 60.6852H50.8207V61.0562H50.4498V60.6852ZM50.4498 61.0562H50.8207V61.4271H50.4498V61.0562ZM50.4498 62.1689H50.8207V62.5398H50.4498V62.1689ZM50.0788 62.1689H50.4498V62.5398H50.0788V62.1689ZM49.7079 62.1689H50.0788V62.5398H49.7079V62.1689ZM49.7079 61.798H50.0788V62.1689H49.7079V61.798ZM50.0788 61.4271H50.4498V61.798H50.0788V61.4271ZM51.561 61.0562H51.9319V61.4271H51.561V61.0562ZM51.9319 61.4271H52.3029V61.798H51.9319V61.4271ZM51.1901 61.4271H51.561V61.798H51.1901V61.4271ZM51.9319 61.798H52.3029V62.1689H51.9319V61.798ZM51.561 61.798H51.9319V62.1689H51.561V61.798ZM51.1901 61.798H51.561V62.1689H51.1901V61.798ZM51.1901 62.1689H51.561V62.5398H51.1901V62.1689ZM51.561 62.5398H51.9319V62.9107H51.561V62.5398ZM53.4141 61.0562H53.785V61.4271H53.4141V61.0562ZM53.0432 61.0562H53.4141V61.4271H53.0432V61.0562ZM52.6723 61.4271H53.0432V61.798H52.6723V61.4271ZM53.4141 61.798H53.785V62.1689H53.4141V61.798ZM53.4141 62.1689H53.785V62.5398H53.4141V62.1689ZM52.6723 62.1689H53.0432V62.5398H52.6723V62.1689ZM52.6723 61.0562H53.0432V61.4271H52.6723V61.0562ZM53.0432 62.1689H53.4141V62.5398H53.0432V62.1689ZM54.1545 60.6852H54.5254V61.0562H54.1545V60.6852ZM54.1545 61.0562H54.5254V61.4271H54.1545V61.0562ZM54.1545 61.4271H54.5254V61.798H54.1545V61.4271ZM54.1545 61.798H54.5254V62.1689H54.1545V61.798ZM54.1545 62.1689H54.5254V62.5398H54.1545V62.1689ZM54.5254 62.1689H54.8963V62.5398H54.5254V62.1689ZM54.5254 61.0562H54.8963V61.4271H54.5254V61.0562Z" fill="#F24822"/>
</g>
<circle cx="49.2" cy="47.98" r="8.5" fill="#E75400"/>
<circle cx="49.2001" cy="47.9798" r="3.4" fill="#F49B00"/>
<circle cx="25.74" cy="47.98" r="8.5" fill="#E75400"/>
<circle cx="25.7401" cy="47.9798" r="3.4" fill="#F49B00"/>
<circle cx="72.6599" cy="47.98" r="8.5" fill="#E75400"/>
<circle cx="72.66" cy="47.9798" r="3.4" fill="#F49B00"/>
<defs>
<filter id="filter0_f_264_163" x="39.7737" y="60.3853" width="15.4225" height="2.82534" filterUnits="userSpaceOnUse" color-interpolation-filters="sRGB">
<feFlood flood-opacity="0" result="BackgroundImageFix"/>
<feBlend mode="normal" in="SourceGraphic" in2="BackgroundImageFix" result="shape"/>
<feGaussianBlur stdDeviation="0.15" result="effect1_foregroundBlur_264_163"/>
</filter>
</defs>
</svg>
