<svg width="96" height="96" viewBox="0 0 96 96" fill="none" xmlns="http://www.w3.org/2000/svg">
<rect width="96" height="96" fill="white"/>
<path d="M28 18H68V78H28V18Z" fill="#008AEC"/>
<rect x="28" y="48" width="40" height="9" fill="white"/>
<ellipse cx="48" cy="36" rx="13" ry="7" fill="#D9D9D9"/>
<g filter="url(#filter0_f_264_284)">
<path d="M45.2391 51.5455H45.53V51.8364H45.2391V51.5455ZM45.2391 51.8364H45.53V52.1273H45.2391V51.8364ZM45.2391 52.1273H45.53V52.4182H45.2391V52.1273ZM45.2391 52.4182H45.53V52.7091H45.2391V52.4182ZM45.2391 52.7091H45.53V53H45.2391V52.7091ZM45.53 51.5455H45.8209V51.8364H45.53V51.5455ZM45.8209 51.5455H46.1118V51.8364H45.8209V51.5455ZM45.8209 51.8364H46.1118V52.1273H45.8209V51.8364ZM45.8209 52.1273H46.1118V52.4182H45.8209V52.1273ZM45.53 52.1273H45.8209V52.4182H45.53V52.1273ZM46.9834 51.8364H47.2743V52.1273H46.9834V51.8364ZM46.9834 52.1273H47.2743V52.4182H46.9834V52.1273ZM46.9834 52.4182H47.2743V52.7091H46.9834V52.4182ZM46.9834 52.7091H47.2743V53H46.9834V52.7091ZM46.6925 51.8364H46.9834V52.1273H46.6925V51.8364ZM46.6925 52.7091H46.9834V53H46.6925V52.7091ZM46.4016 52.1273H46.6925V52.4182H46.4016V52.1273ZM46.4016 52.4182H46.6925V52.7091H46.4016V52.4182ZM48.1459 51.8364H48.4368V52.1273H48.1459V51.8364ZM47.855 51.8364H48.1459V52.1273H47.855V51.8364ZM47.5641 52.1273H47.855V52.4182H47.5641V52.1273ZM48.1459 52.4182H48.4368V52.7091H48.1459V52.4182ZM48.1459 52.7091H48.4368V53H48.1459V52.7091ZM47.5641 52.7091H47.855V53H47.5641V52.7091ZM47.5641 51.8364H47.855V52.1273H47.5641V51.8364ZM47.855 52.7091H48.1459V53H47.855V52.7091ZM48.7266 51.5455H49.0175V51.8364H48.7266V51.5455ZM48.7266 51.8364H49.0175V52.1273H48.7266V51.8364ZM48.7266 52.1273H49.0175V52.4182H48.7266V52.1273ZM48.7266 52.4182H49.0175V52.7091H48.7266V52.4182ZM48.7266 52.7091H49.0175V53H48.7266V52.7091ZM49.0175 52.7091H49.3084V53H49.0175V52.7091ZM49.0175 51.8364H49.3084V52.1273H49.0175V51.8364ZM50.1803 51.8364H50.4712V52.1273H50.1803V51.8364ZM50.1803 52.1273H50.4712V52.4182H50.1803V52.1273ZM50.1803 52.4182H50.4712V52.7091H50.1803V52.4182ZM50.1803 52.7091H50.4712V53H50.1803V52.7091ZM49.8893 51.8364H50.1803V52.1273H49.8893V51.8364ZM49.8893 52.7091H50.1803V53H49.8893V52.7091ZM49.5984 52.1273H49.8893V52.4182H49.5984V52.1273ZM49.5984 52.4182H49.8893V52.7091H49.5984V52.4182Z" fill="#F24822"/>
</g>
<defs>
<filter id="filter0_f_264_284" x="45.039" y="51.3454" width="5.63218" height="1.85459" filterUnits="userSpaceOnUse" color-interpolation-filters="sRGB">
<feFlood flood-opacity="0" result="BackgroundImageFix"/>
<feBlend mode="normal" in="SourceGraphic" in2="BackgroundImageFix" result="shape"/>
<feGaussianBlur stdDeviation="0.1" result="effect1_foregroundBlur_264_284"/>
</filter>
</defs>
</svg>
