<svg width="96" height="96" viewBox="0 0 96 96" fill="none" xmlns="http://www.w3.org/2000/svg">
<rect width="96" height="96" fill="white"/>
<rect x="10" y="30.7456" width="76" height="40.7423" rx="7.83505" fill="#FFD15F"/>
<ellipse cx="22.6667" cy="35.9691" rx="12.6667" ry="10.9691" fill="#FFD15F"/>
<ellipse cx="47.9999" cy="35.9691" rx="12.6667" ry="10.9691" fill="#FFD15F"/>
<ellipse cx="73.3334" cy="35.9691" rx="12.6667" ry="10.9691" fill="#FFD15F"/>
<path d="M10 41.4535C10 40.0111 11.1693 38.8418 12.6117 38.8418H83.3883C84.8307 38.8418 86 40.0111 86 41.4535V63.6528C86 67.98 82.4921 71.4878 78.1649 71.4878H17.8351C13.5079 71.4878 10 67.98 10 63.6528V41.4535Z" fill="#928585" fill-opacity="0.5"/>
<rect x="33.5051" y="50.3333" width="29.512" height="11.2302" fill="white"/>
<g filter="url(#filter0_f_264_12)">
<path d="M39.0847 54.6182H39.6545V55.188H39.0847V54.6182ZM38.5149 54.6182H39.0847V55.188H38.5149V54.6182ZM37.9451 55.188H38.5149V55.7578H37.9451V55.188ZM37.9451 55.7578H38.5149V56.3276H37.9451V55.7578ZM38.5149 55.7578H39.0847V56.3276H38.5149V55.7578ZM39.0847 55.7578H39.6545V56.3276H39.0847V55.7578ZM39.0847 56.3276H39.6545V56.8975H39.0847V56.3276ZM39.0847 56.8975H39.6545V57.4673H39.0847V56.8975ZM38.5149 56.8975H39.0847V57.4673H38.5149V56.8975ZM37.9451 56.8975H38.5149V57.4673H37.9451V56.8975ZM37.9451 54.6182H38.5149V55.188H37.9451V54.6182ZM40.2221 55.7578H40.792V56.3276H40.2221V55.7578ZM40.2221 56.3276H40.792V56.8975H40.2221V56.3276ZM40.792 56.8975H41.3618V57.4673H40.792V56.8975ZM41.3618 56.3276H41.9316V56.8975H41.3618V56.3276ZM41.3618 55.7578H41.9316V56.3276H41.3618V55.7578ZM40.792 55.188H41.3618V55.7578H40.792V55.188ZM42.4992 55.188H43.069V55.7578H42.4992V55.188ZM42.4992 55.7578H43.069V56.3276H42.4992V55.7578ZM42.4992 56.3276H43.069V56.8975H42.4992V56.3276ZM43.069 56.8975H43.6388V57.4673H43.069V56.8975ZM43.6388 56.8975H44.2087V57.4673H43.6388V56.8975ZM43.6388 56.3276H44.2087V56.8975H43.6388V56.3276ZM43.6388 55.7578H44.2087V56.3276H43.6388V55.7578ZM43.6388 55.188H44.2087V55.7578H43.6388V55.188ZM44.7763 55.188H45.3461V55.7578H44.7763V55.188ZM44.7763 55.7578H45.3461V56.3276H44.7763V55.7578ZM44.7763 56.3276H45.3461V56.8975H44.7763V56.3276ZM44.7763 56.8975H45.3461V57.4673H44.7763V56.8975ZM45.3461 55.188H45.9159V55.7578H45.3461V55.188ZM47.6237 54.6182H48.1935V55.188H47.6237V54.6182ZM47.6237 55.188H48.1935V55.7578H47.6237V55.188ZM47.6237 55.7578H48.1935V56.3276H47.6237V55.7578ZM47.6237 56.3276H48.1935V56.8975H47.6237V56.3276ZM47.6237 56.8975H48.1935V57.4673H47.6237V56.8975ZM47.0539 55.188H47.6237V55.7578H47.0539V55.188ZM46.4841 55.7578H47.0539V56.3276H46.4841V55.7578ZM46.4841 56.3276H47.0539V56.8975H46.4841V56.3276ZM47.0539 56.8975H47.6237V57.4673H47.0539V56.8975ZM48.7611 55.7578H49.3309V56.3276H48.7611V55.7578ZM48.7611 56.3276H49.3309V56.8975H48.7611V56.3276ZM49.3309 56.8975H49.9008V57.4673H49.3309V56.8975ZM49.9008 56.3276H50.4706V56.8975H49.9008V56.3276ZM49.9008 55.7578H50.4706V56.3276H49.9008V55.7578ZM49.3309 55.188H49.9008V55.7578H49.3309V55.188ZM51.0382 55.188H51.608V55.7578H51.0382V55.188ZM51.0382 55.7578H51.608V56.3276H51.0382V55.7578ZM51.0382 56.3276H51.608V56.8975H51.0382V56.3276ZM51.608 56.8975H52.1778V57.4673H51.608V56.8975ZM52.1778 56.8975H52.7476V57.4673H52.1778V56.8975ZM52.1778 56.3276H52.7476V56.8975H52.1778V56.3276ZM52.1778 55.7578H52.7476V56.3276H52.1778V55.7578ZM52.1778 55.188H52.7476V55.7578H52.1778V55.188ZM54.4549 55.188H55.0247V55.7578H54.4549V55.188ZM54.4549 55.7578H55.0247V56.3276H54.4549V55.7578ZM54.4549 56.3276H55.0247V56.8975H54.4549V56.3276ZM54.4549 56.8975H55.0247V57.4673H54.4549V56.8975ZM54.4549 57.4673H55.0247V58.0371H54.4549V57.4673ZM53.8851 57.4673H54.4549V58.0371H53.8851V57.4673ZM53.3152 57.4673H53.8851V58.0371H53.3152V57.4673ZM53.8851 55.188H54.4549V55.7578H53.8851V55.188ZM53.3152 55.7578H53.8851V56.3276H53.3152V55.7578ZM53.3152 56.3276H53.8851V56.8975H53.3152V56.3276ZM55.5923 54.6182H56.1621V55.188H55.5923V54.6182ZM55.5923 55.188H56.1621V55.7578H55.5923V55.188ZM55.5923 55.7578H56.1621V56.3276H55.5923V55.7578ZM55.5923 56.3276H56.1621V56.8975H55.5923V56.3276ZM55.5923 56.8975H56.1621V57.4673H55.5923V56.8975ZM56.1621 55.188H56.7319V55.7578H56.1621V55.188ZM56.7319 55.7578H57.3018V56.3276H56.7319V55.7578ZM56.7319 56.3276H57.3018V56.8975H56.7319V56.3276ZM56.7319 56.8975H57.3018V57.4673H56.7319V56.8975Z" fill="#F24822"/>
</g>
<defs>
<filter id="filter0_f_264_12" x="37.6451" y="54.3182" width="19.9567" height="4.01895" filterUnits="userSpaceOnUse" color-interpolation-filters="sRGB">
<feFlood flood-opacity="0" result="BackgroundImageFix"/>
<feBlend mode="normal" in="SourceGraphic" in2="BackgroundImageFix" result="shape"/>
<feGaussianBlur stdDeviation="0.15" result="effect1_foregroundBlur_264_12"/>
</filter>
</defs>
</svg>
