<svg width="96" height="96" viewBox="0 0 96 96" fill="none" xmlns="http://www.w3.org/2000/svg">
<rect width="96" height="96" fill="white"/>
<rect x="28" y="21.3333" width="40" height="66.6667" fill="#00A170"/>
<path d="M47.0667 8L28 21.3333L68 21.4667L47.0667 8Z" fill="#00A170"/>
<rect x="28" y="46.3999" width="40" height="12.8" fill="white"/>
<g filter="url(#filter0_f_264_195)">
<path d="M48.4381 51.7454H48.729V52.0363H48.4381V51.7454ZM48.1472 51.7454H48.4381V52.0363H48.1472V51.7454ZM47.8563 52.0363H48.1472V52.3272H47.8563V52.0363ZM47.8563 52.3272H48.1472V52.6181H47.8563V52.3272ZM48.1472 52.3272H48.4381V52.6181H48.1472V52.3272ZM48.4381 52.3272H48.729V52.6181H48.4381V52.3272ZM48.4381 52.6181H48.729V52.909H48.4381V52.6181ZM48.4381 52.909H48.729V53.2H48.4381V52.909ZM48.1472 52.909H48.4381V53.2H48.1472V52.909ZM47.8563 52.909H48.1472V53.2H47.8563V52.909ZM47.8563 51.7454H48.1472V52.0363H47.8563V51.7454ZM49.0188 52.3272H49.3097V52.6181H49.0188V52.3272ZM49.0188 52.6181H49.3097V52.909H49.0188V52.6181ZM49.3097 52.909H49.6006V53.2H49.3097V52.909ZM49.6006 52.6181H49.8915V52.909H49.6006V52.6181ZM49.6006 52.3272H49.8915V52.6181H49.6006V52.3272ZM49.3097 52.0363H49.6006V52.3272H49.3097V52.0363ZM50.1813 52.0363H50.4722V52.3272H50.1813V52.0363ZM50.1813 52.3272H50.4722V52.6181H50.1813V52.3272ZM50.1813 52.6181H50.4722V52.909H50.1813V52.6181ZM50.7631 52.0363H51.054V52.3272H50.7631V52.0363ZM50.7631 52.3272H51.054V52.6181H50.7631V52.3272ZM50.7631 52.6181H51.054V52.909H50.7631V52.6181ZM50.4722 52.909H50.7631V53.2H50.4722V52.909ZM50.1813 53.2H50.4722V53.4909H50.1813V53.2Z" fill="#F24822"/>
</g>
<defs>
<filter id="filter0_f_264_195" x="47.6562" y="51.5454" width="3.59775" height="2.14561" filterUnits="userSpaceOnUse" color-interpolation-filters="sRGB">
<feFlood flood-opacity="0" result="BackgroundImageFix"/>
<feBlend mode="normal" in="SourceGraphic" in2="BackgroundImageFix" result="shape"/>
<feGaussianBlur stdDeviation="0.1" result="effect1_foregroundBlur_264_195"/>
</filter>
</defs>
</svg>
