<svg width="96" height="96" viewBox="0 0 96 96" fill="none" xmlns="http://www.w3.org/2000/svg">
<rect width="96" height="96" fill="white"/>
<rect x="5.19482" y="32" width="85" height="32.3" fill="#ED005F"/>
<rect x="10.2949" y="36.7598" width="74.8" height="22.44" rx="3.4" fill="#D974A9"/>
<rect x="41.2351" y="59.2" width="15.98" height="5.1" fill="white"/>
<g filter="url(#filter0_f_264_129)">
<path d="M43.0942 60.6855H43.4651V61.0564H43.0942V60.6855ZM42.7233 60.6855H43.0942V61.0564H42.7233V60.6855ZM42.3524 61.0564H42.7233V61.4273H42.3524V61.0564ZM42.3524 61.4273H42.7233V61.7982H42.3524V61.4273ZM42.7233 61.4273H43.0942V61.7982H42.7233V61.4273ZM43.0942 61.4273H43.4651V61.7982H43.0942V61.4273ZM43.0942 61.7982H43.4651V62.1691H43.0942V61.7982ZM43.0942 62.1691H43.4651V62.54H43.0942V62.1691ZM42.7233 62.1691H43.0942V62.54H42.7233V62.1691ZM42.3524 62.1691H42.7233V62.54H42.3524V62.1691ZM42.3524 60.6855H42.7233V61.0564H42.3524V60.6855ZM43.8346 60.6855H44.2055V61.0564H43.8346V60.6855ZM43.8346 61.0564H44.2055V61.4273H43.8346V61.0564ZM43.8346 61.4273H44.2055V61.7982H43.8346V61.4273ZM43.8346 61.7982H44.2055V62.1691H43.8346V61.7982ZM43.8346 62.1691H44.2055V62.54H43.8346V62.1691ZM44.2055 62.1691H44.5764V62.54H44.2055V62.1691ZM44.2055 61.0564H44.5764V61.4273H44.2055V61.0564ZM44.9462 61.0564H45.3171V61.4273H44.9462V61.0564ZM44.9462 61.4273H45.3171V61.7982H44.9462V61.4273ZM44.9462 61.7982H45.3171V62.1691H44.9462V61.7982ZM44.9462 62.1691H45.3171V62.54H44.9462V62.1691ZM45.3171 61.0564H45.6881V61.4273H45.3171V61.0564ZM46.7997 61.0564H47.1706V61.4273H46.7997V61.0564ZM46.7997 61.4273H47.1706V61.7982H46.7997V61.4273ZM46.7997 61.7982H47.1706V62.1691H46.7997V61.7982ZM46.7997 62.1691H47.1706V62.54H46.7997V62.1691ZM46.4288 61.0564H46.7997V61.4273H46.4288V61.0564ZM46.4288 62.1691H46.7997V62.54H46.4288V62.1691ZM46.0579 61.4273H46.4288V61.7982H46.0579V61.4273ZM46.0579 61.7982H46.4288V62.1691H46.0579V61.7982ZM47.5401 61.0564H47.911V61.4273H47.5401V61.0564ZM47.5401 61.4273H47.911V61.7982H47.5401V61.4273ZM47.5401 61.7982H47.911V62.1691H47.5401V61.7982ZM47.911 62.1691H48.2819V62.54H47.911V62.1691ZM48.2819 61.7982H48.6528V62.1691H48.2819V61.7982ZM48.2819 61.4273H48.6528V61.7982H48.2819V61.4273ZM48.2819 61.0564H48.6528V61.4273H48.2819V61.0564ZM48.6528 62.1691H49.0237V62.54H48.6528V62.1691ZM49.0237 61.7982H49.3946V62.1691H49.0237V61.7982ZM49.0237 61.4273H49.3946V61.7982H49.0237V61.4273ZM49.0237 61.0564H49.3946V61.4273H49.0237V61.0564ZM49.7673 60.6855H50.1382V61.0564H49.7673V60.6855ZM49.7673 61.0564H50.1382V61.4273H49.7673V61.0564ZM49.7673 61.4273H50.1382V61.7982H49.7673V61.4273ZM49.7673 61.7982H50.1382V62.1691H49.7673V61.7982ZM49.7673 62.1691H50.1382V62.54H49.7673V62.1691ZM50.1382 61.0564H50.5092V61.4273H50.1382V61.0564ZM50.5092 61.4273H50.8801V61.7982H50.5092V61.4273ZM50.5092 61.7982H50.8801V62.1691H50.5092V61.7982ZM50.1382 62.1691H50.5092V62.54H50.1382V62.1691ZM51.6204 61.0564H51.9913V61.4273H51.6204V61.0564ZM51.9913 61.4273H52.3622V61.7982H51.9913V61.4273ZM51.2495 61.4273H51.6204V61.7982H51.2495V61.4273ZM51.9913 61.7982H52.3622V62.1691H51.9913V61.7982ZM51.6204 61.7982H51.9913V62.1691H51.6204V61.7982ZM51.2495 61.7982H51.6204V62.1691H51.2495V61.7982ZM51.2495 62.1691H51.6204V62.54H51.2495V62.1691ZM51.6204 62.54H51.9913V62.9109H51.6204V62.54ZM52.7317 61.0564H53.1026V61.4273H52.7317V61.0564ZM52.7317 61.4273H53.1026V61.7982H52.7317V61.4273ZM52.7317 61.7982H53.1026V62.1691H52.7317V61.7982ZM52.7317 62.1691H53.1026V62.54H52.7317V62.1691ZM53.1026 61.0564H53.4735V61.4273H53.1026V61.0564ZM53.8433 61.0564H54.2143V61.4273H53.8433V61.0564ZM53.8433 61.4273H54.2143V61.7982H53.8433V61.4273ZM53.8433 61.7982H54.2143V62.1691H53.8433V61.7982ZM53.8433 62.1691H54.2143V62.54H53.8433V62.1691ZM54.2143 61.0564H54.5852V61.4273H54.2143V61.0564ZM54.955 61.0564H55.3259V61.4273H54.955V61.0564ZM54.955 61.4273H55.3259V61.7982H54.955V61.4273ZM54.955 61.7982H55.3259V62.1691H54.955V61.7982ZM55.6968 61.0564H56.0677V61.4273H55.6968V61.0564ZM55.6968 61.4273H56.0677V61.7982H55.6968V61.4273ZM55.6968 61.7982H56.0677V62.1691H55.6968V61.7982ZM55.3259 62.1691H55.6968V62.54H55.3259V62.1691ZM54.955 62.54H55.3259V62.9109H54.955V62.54Z" fill="#F24822"/>
</g>
<circle cx="49.395" cy="47.98" r="8.5" fill="#CE2D6D"/>
<circle cx="49.3949" cy="47.9801" r="3.4" fill="#D974A9"/>
<circle cx="25.9348" cy="47.98" r="8.5" fill="#CE2D6D"/>
<circle cx="25.9347" cy="47.9801" r="3.4" fill="#D974A9"/>
<circle cx="72.855" cy="47.98" r="8.5" fill="#CE2D6D"/>
<circle cx="72.8551" cy="47.9801" r="3.4" fill="#D974A9"/>
<defs>
<filter id="filter0_f_264_129" x="42.0523" y="60.3855" width="14.3153" height="2.82534" filterUnits="userSpaceOnUse" color-interpolation-filters="sRGB">
<feFlood flood-opacity="0" result="BackgroundImageFix"/>
<feBlend mode="normal" in="SourceGraphic" in2="BackgroundImageFix" result="shape"/>
<feGaussianBlur stdDeviation="0.15" result="effect1_foregroundBlur_264_129"/>
</filter>
</defs>
</svg>
