<svg width="96" height="96" viewBox="0 0 96 96" fill="none" xmlns="http://www.w3.org/2000/svg">
<rect width="96" height="96" fill="white"/>
<rect x="43" y="13" width="10" height="15" fill="black"/>
<path d="M41 12.6667C41 11.1939 42.1939 10 43.6667 10H52.3333C53.8061 10 55 11.1939 55 12.6667V12.6667C55 15.6122 52.6122 18 49.6667 18H46.3333C43.3878 18 41 15.6122 41 12.6667V12.6667Z" fill="black"/>
<path d="M38 27C38 25.8954 38.8954 25 40 25H56C57.1046 25 58 25.8954 58 27V89H38V27Z" fill="#E3F399"/>
<rect x="38" y="48" width="20" height="15" fill="black"/>
<g filter="url(#filter0_f_264_250)">
<path d="M43.5063 54.5455H43.7972V54.8364H43.5063V54.5455ZM43.2154 54.5455H43.5063V54.8364H43.2154V54.5455ZM42.9245 54.8364H43.2154V55.1273H42.9245V54.8364ZM42.9245 55.1273H43.2154V55.4182H42.9245V55.1273ZM43.2154 55.1273H43.5063V55.4182H43.2154V55.1273ZM43.5063 55.1273H43.7972V55.4182H43.5063V55.1273ZM43.5063 55.4182H43.7972V55.7091H43.5063V55.4182ZM43.5063 55.7091H43.7972V56H43.5063V55.7091ZM43.2154 55.7091H43.5063V56H43.2154V55.7091ZM42.9245 55.7091H43.2154V56H42.9245V55.7091ZM42.9245 54.5455H43.2154V54.8364H42.9245V54.5455ZM44.087 54.8364H44.3779V55.1273H44.087V54.8364ZM44.087 55.1273H44.3779V55.4182H44.087V55.1273ZM44.087 55.4182H44.3779V55.7091H44.087V55.4182ZM44.3779 55.7091H44.6688V56H44.3779V55.7091ZM44.6688 55.7091H44.9597V56H44.6688V55.7091ZM44.6688 55.4182H44.9597V55.7091H44.6688V55.4182ZM44.6688 55.1273H44.9597V55.4182H44.6688V55.1273ZM44.6688 54.8364H44.9597V55.1273H44.6688V54.8364ZM45.2495 55.7091H45.5404V56H45.2495V55.7091ZM45.2495 55.4182H45.5404V55.7091H45.2495V55.4182ZM45.2495 55.1273H45.5404V55.4182H45.2495V55.1273ZM45.2495 54.8364H45.5404V55.1273H45.2495V54.8364ZM45.5404 54.8364H45.8313V55.1273H45.5404V54.8364ZM45.8313 55.1273H46.1222V55.4182H45.8313V55.1273ZM45.8313 55.4182H46.1222V55.7091H45.8313V55.4182ZM45.8313 55.7091H46.1222V56H45.8313V55.7091ZM46.412 54.8364H46.7029V55.1273H46.412V54.8364ZM46.412 55.1273H46.7029V55.4182H46.412V55.1273ZM46.412 55.4182H46.7029V55.7091H46.412V55.4182ZM46.412 55.7091H46.7029V56H46.412V55.7091ZM46.7029 54.5455H46.9938V54.8364H46.7029V54.5455ZM46.7029 55.1273H46.9938V55.4182H46.7029V55.1273ZM47.2839 54.5455H47.5748V54.8364H47.2839V54.5455ZM47.2839 54.8364H47.5748V55.1273H47.2839V54.8364ZM47.2839 55.1273H47.5748V55.4182H47.2839V55.1273ZM47.2839 55.4182H47.5748V55.7091H47.2839V55.4182ZM47.2839 55.7091H47.5748V56H47.2839V55.7091ZM47.8651 55.1273H48.156V55.4182H47.8651V55.1273ZM47.8651 55.4182H48.156V55.7091H47.8651V55.4182ZM48.156 55.7091H48.4469V56H48.156V55.7091ZM48.4469 55.4182H48.7378V55.7091H48.4469V55.4182ZM48.4469 55.1273H48.7378V55.4182H48.4469V55.1273ZM48.156 54.8364H48.4469V55.1273H48.156V54.8364ZM49.0276 54.8364H49.3185V55.1273H49.0276V54.8364ZM49.0276 55.1273H49.3185V55.4182H49.0276V55.1273ZM49.0276 55.4182H49.3185V55.7091H49.0276V55.4182ZM49.3185 55.7091H49.6094V56H49.3185V55.7091ZM49.6094 55.4182H49.9003V55.7091H49.6094V55.4182ZM49.6094 55.1273H49.9003V55.4182H49.6094V55.1273ZM49.6094 54.8364H49.9003V55.1273H49.6094V54.8364ZM49.9003 55.7091H50.1912V56H49.9003V55.7091ZM50.1912 55.4182H50.4821V55.7091H50.1912V55.4182ZM50.1912 55.1273H50.4821V55.4182H50.1912V55.1273ZM50.1912 54.8364H50.4821V55.1273H50.1912V54.8364ZM51.0654 54.8364H51.3563V55.1273H51.0654V54.8364ZM51.3563 55.1273H51.6472V55.4182H51.3563V55.1273ZM50.7745 55.1273H51.0654V55.4182H50.7745V55.1273ZM51.3563 55.4182H51.6472V55.7091H51.3563V55.4182ZM51.0654 55.4182H51.3563V55.7091H51.0654V55.4182ZM50.7745 55.4182H51.0654V55.7091H50.7745V55.4182ZM50.7745 55.7091H51.0654V56H50.7745V55.7091ZM51.0654 56H51.3563V56.2909H51.0654V56ZM51.937 54.8364H52.2279V55.1273H51.937V54.8364ZM51.937 55.1273H52.2279V55.4182H51.937V55.1273ZM51.937 55.4182H52.2279V55.7091H51.937V55.4182ZM51.937 55.7091H52.2279V56H51.937V55.7091ZM52.2279 54.8364H52.5188V55.1273H52.2279V54.8364Z" fill="#F24822"/>
</g>
<defs>
<filter id="filter0_f_264_250" x="42.7246" y="54.3454" width="9.99424" height="2.14561" filterUnits="userSpaceOnUse" color-interpolation-filters="sRGB">
<feFlood flood-opacity="0" result="BackgroundImageFix"/>
<feBlend mode="normal" in="SourceGraphic" in2="BackgroundImageFix" result="shape"/>
<feGaussianBlur stdDeviation="0.1" result="effect1_foregroundBlur_264_250"/>
</filter>
</defs>
</svg>
