<svg width="96" height="96" viewBox="0 0 96 96" fill="none" xmlns="http://www.w3.org/2000/svg">
<rect width="96" height="96" fill="white"/>
<rect x="7.5" y="7.5" width="80" height="80" fill="#53A0D6"/>
<rect x="12.3" y="12.3" width="70.4" height="70.4" rx="3.2" fill="#87C3ED"/>
<ellipse cx="23.8199" cy="21.74" rx="7.68" ry="5.28" fill="white"/>
<path d="M31.4999 22.22H16.1399L18.4829 31.18H28.8965L31.4999 22.22Z" fill="#53A0D6"/>
<ellipse cx="47.5001" cy="21.74" rx="7.68" ry="5.28" fill="white"/>
<path d="M55.1801 22.22H39.8201L42.1631 31.18H52.5767L55.1801 22.22Z" fill="#53A0D6"/>
<ellipse cx="71.18" cy="21.74" rx="7.68" ry="5.28" fill="white"/>
<path d="M78.86 22.22H63.5L65.8431 31.18H76.2566L78.86 22.22Z" fill="#53A0D6"/>
<ellipse cx="23.8199" cy="45.4199" rx="7.68" ry="5.28" fill="white"/>
<path d="M31.4999 45.9001H16.1399L18.4829 54.8601H28.8965L31.4999 45.9001Z" fill="#53A0D6"/>
<ellipse cx="47.5001" cy="45.4199" rx="7.68" ry="5.28" fill="white"/>
<path d="M55.1801 45.9001H39.8201L42.1631 54.8601H52.5767L55.1801 45.9001Z" fill="#53A0D6"/>
<ellipse cx="71.18" cy="45.4199" rx="7.68" ry="5.28" fill="white"/>
<path d="M78.86 45.9001H63.5L65.8431 54.8601H76.2566L78.86 45.9001Z" fill="#53A0D6"/>
<ellipse cx="23.8199" cy="69.1001" rx="7.68" ry="5.28" fill="white"/>
<path d="M31.4999 69.5801H16.1399L18.4829 78.5401H28.8965L31.4999 69.5801Z" fill="#53A0D6"/>
<ellipse cx="47.5001" cy="69.1001" rx="7.68" ry="5.28" fill="white"/>
<path d="M55.1801 69.5801H39.8201L42.1631 78.5401H52.5767L55.1801 69.5801Z" fill="#53A0D6"/>
<ellipse cx="71.18" cy="69.1001" rx="7.68" ry="5.28" fill="white"/>
<path d="M78.86 69.5801H63.5L65.8431 78.5401H76.2566L78.86 69.5801Z" fill="#53A0D6"/>
<rect x="41.4199" y="82.7" width="11.84" height="4.8" fill="white"/>
<g filter="url(#filter0_f_264_30)">
<path d="M43.8238 84.2746H44.1729V84.6237H43.8238V84.2746ZM43.8238 84.6237H44.1729V84.9727H43.8238V84.6237ZM43.8238 84.9727H44.1729V85.3218H43.8238V84.9727ZM43.8238 85.3218H44.1729V85.6709H43.8238V85.3218ZM44.1729 85.6709H44.522V86.02H44.1729V85.6709ZM44.522 85.3218H44.8711V85.6709H44.522V85.3218ZM44.522 84.9727H44.8711V85.3218H44.522V84.9727ZM44.522 84.6237H44.8711V84.9727H44.522V84.6237ZM44.522 84.2746H44.8711V84.6237H44.522V84.2746ZM45.917 84.6237H46.2661V84.9727H45.917V84.6237ZM45.917 84.9727H46.2661V85.3218H45.917V84.9727ZM45.917 85.3218H46.2661V85.6709H45.917V85.3218ZM45.917 85.6709H46.2661V86.02H45.917V85.6709ZM45.5679 84.6237H45.917V84.9727H45.5679V84.6237ZM45.5679 85.6709H45.917V86.02H45.5679V85.6709ZM45.2188 84.9727H45.5679V85.3218H45.2188V84.9727ZM45.2188 85.3218H45.5679V85.6709H45.2188V85.3218ZM46.6138 85.6709H46.9629V86.02H46.6138V85.6709ZM46.6138 85.3218H46.9629V85.6709H46.6138V85.3218ZM46.6138 84.9727H46.9629V85.3218H46.6138V84.9727ZM46.6138 84.6237H46.9629V84.9727H46.6138V84.6237ZM46.9629 84.6237H47.312V84.9727H46.9629V84.6237ZM47.312 84.9727H47.6611V85.3218H47.312V84.9727ZM47.312 85.3218H47.6611V85.6709H47.312V85.3218ZM47.312 85.6709H47.6611V86.02H47.312V85.6709ZM48.0088 85.6709H48.3579V86.02H48.0088V85.6709ZM48.0088 85.3218H48.3579V85.6709H48.0088V85.3218ZM48.0088 84.9727H48.3579V85.3218H48.0088V84.9727ZM48.0088 84.2746H48.3579V84.6237H48.0088V84.2746ZM48.7063 84.2746H49.0554V84.6237H48.7063V84.2746ZM48.7063 84.6237H49.0554V84.9727H48.7063V84.6237ZM48.7063 84.9727H49.0554V85.3218H48.7063V84.9727ZM48.7063 85.3218H49.0554V85.6709H48.7063V85.3218ZM48.7063 85.6709H49.0554V86.02H48.7063V85.6709ZM49.4038 84.2746H49.7529V84.6237H49.4038V84.2746ZM49.4038 84.6237H49.7529V84.9727H49.4038V84.6237ZM49.4038 84.9727H49.7529V85.3218H49.4038V84.9727ZM49.4038 85.3218H49.7529V85.6709H49.4038V85.3218ZM49.4038 85.6709H49.7529V86.02H49.4038V85.6709ZM50.7995 84.6237H51.1486V84.9727H50.7995V84.6237ZM50.7995 84.9727H51.1486V85.3218H50.7995V84.9727ZM50.7995 85.3218H51.1486V85.6709H50.7995V85.3218ZM50.7995 85.6709H51.1486V86.02H50.7995V85.6709ZM50.4504 84.6237H50.7995V84.9727H50.4504V84.6237ZM50.4504 85.6709H50.7995V86.02H50.4504V85.6709ZM50.1013 84.9727H50.4504V85.3218H50.1013V84.9727ZM50.1013 85.3218H50.4504V85.6709H50.1013V85.3218Z" fill="#F24822"/>
</g>
<defs>
<filter id="filter0_f_264_30" x="43.5237" y="83.9747" width="7.92495" height="2.34536" filterUnits="userSpaceOnUse" color-interpolation-filters="sRGB">
<feFlood flood-opacity="0" result="BackgroundImageFix"/>
<feBlend mode="normal" in="SourceGraphic" in2="BackgroundImageFix" result="shape"/>
<feGaussianBlur stdDeviation="0.15" result="effect1_foregroundBlur_264_30"/>
</filter>
</defs>
</svg>
