<svg width="96" height="96" viewBox="0 0 96 96" fill="none" xmlns="http://www.w3.org/2000/svg">
<rect width="96" height="96" fill="white"/>
<rect x="10" y="30.7456" width="76" height="40.7423" rx="7.83505" fill="#906948"/>
<ellipse cx="22.6667" cy="35.9691" rx="12.6667" ry="10.9691" fill="#906948"/>
<ellipse cx="47.9999" cy="35.9691" rx="12.6667" ry="10.9691" fill="#906948"/>
<ellipse cx="73.3334" cy="35.9691" rx="12.6667" ry="10.9691" fill="#906948"/>
<path d="M10 41.4535C10 40.0111 11.1693 38.8418 12.6117 38.8418H83.3883C84.8307 38.8418 86 40.0111 86 41.4535V63.6528C86 67.98 82.4921 71.4878 78.1649 71.4878H17.8351C13.5079 71.4878 10 67.98 10 63.6528V41.4535Z" fill="#928585" fill-opacity="0.5"/>
<rect x="33.5051" y="50.3333" width="29.512" height="11.2302" fill="white"/>
<g filter="url(#filter0_f_264_21)">
<path d="M41.8625 54.6182H42.4324V55.188H41.8625V54.6182ZM41.8625 55.188H42.4324V55.7578H41.8625V55.188ZM41.8625 55.7578H42.4324V56.3276H41.8625V55.7578ZM41.8625 56.3276H42.4324V56.8975H41.8625V56.3276ZM42.4324 56.8975H43.0022V57.4673H42.4324V56.8975ZM43.0022 56.3276H43.572V56.8975H43.0022V56.3276ZM43.0022 55.7578H43.572V56.3276H43.0022V55.7578ZM43.0022 55.188H43.572V55.7578H43.0022V55.188ZM43.0022 54.6182H43.572V55.188H43.0022V54.6182ZM43.572 56.8975H44.1418V57.4673H43.572V56.8975ZM44.1418 56.3276H44.7117V56.8975H44.1418V56.3276ZM44.1418 55.7578H44.7117V56.3276H44.1418V55.7578ZM44.1418 55.188H44.7117V55.7578H44.1418V55.188ZM44.1418 54.6182H44.7117V55.188H44.1418V54.6182ZM45.2843 54.6182H45.8541V55.188H45.2843V54.6182ZM45.2843 55.188H45.8541V55.7578H45.2843V55.188ZM45.2843 55.7578H45.8541V56.3276H45.2843V55.7578ZM45.2843 56.3276H45.8541V56.8975H45.2843V56.3276ZM45.2843 56.8975H45.8541V57.4673H45.2843V56.8975ZM45.8541 55.188H46.4239V55.7578H45.8541V55.188ZM46.4239 55.7578H46.9937V56.3276H46.4239V55.7578ZM46.4239 56.3276H46.9937V56.8975H46.4239V56.3276ZM46.4239 56.8975H46.9937V57.4673H46.4239V56.8975ZM48.1311 55.188H48.701V55.7578H48.1311V55.188ZM48.701 55.7578H49.2708V56.3276H48.701V55.7578ZM47.5613 55.7578H48.1311V56.3276H47.5613V55.7578ZM48.701 56.3276H49.2708V56.8975H48.701V56.3276ZM48.1311 56.3276H48.701V56.8975H48.1311V56.3276ZM47.5613 56.3276H48.1311V56.8975H47.5613V56.3276ZM47.5613 56.8975H48.1311V57.4673H47.5613V56.8975ZM48.1311 57.4673H48.701V58.0371H48.1311V57.4673ZM50.978 55.188H51.5479V55.7578H50.978V55.188ZM50.978 55.7578H51.5479V56.3276H50.978V55.7578ZM50.978 56.3276H51.5479V56.8975H50.978V56.3276ZM50.978 56.8975H51.5479V57.4673H50.978V56.8975ZM50.4082 55.188H50.978V55.7578H50.4082V55.188ZM50.4082 56.8975H50.978V57.4673H50.4082V56.8975ZM49.8384 55.7578H50.4082V56.3276H49.8384V55.7578ZM49.8384 56.3276H50.4082V56.8975H49.8384V56.3276ZM52.1154 54.6182H52.6853V55.188H52.1154V54.6182ZM52.1154 55.188H52.6853V55.7578H52.1154V55.188ZM52.1154 55.7578H52.6853V56.3276H52.1154V55.7578ZM52.1154 56.3276H52.6853V56.8975H52.1154V56.3276ZM52.1154 56.8975H52.6853V57.4673H52.1154V56.8975ZM52.6853 56.8975H53.2551V57.4673H52.6853V56.8975ZM52.6853 55.188H53.2551V55.7578H52.6853V55.188Z" fill="#F24822"/>
</g>
<defs>
<filter id="filter0_f_264_21" x="41.5625" y="54.3182" width="11.9926" height="4.01895" filterUnits="userSpaceOnUse" color-interpolation-filters="sRGB">
<feFlood flood-opacity="0" result="BackgroundImageFix"/>
<feBlend mode="normal" in="SourceGraphic" in2="BackgroundImageFix" result="shape"/>
<feGaussianBlur stdDeviation="0.15" result="effect1_foregroundBlur_264_21"/>
</filter>
</defs>
</svg>
