<svg width="96" height="96" viewBox="0 0 96 96" fill="none" xmlns="http://www.w3.org/2000/svg">
<rect width="96" height="96" fill="white"/>
<rect x="28" y="18" width="40" height="60" rx="5" fill="#F49B00"/>
<g filter="url(#filter0_f_264_257)">
<path d="M45.2375 45.5455H45.5284V45.8364H45.2375V45.5455ZM45.2375 45.8364H45.5284V46.1273H45.2375V45.8364ZM45.2375 46.1273H45.5284V46.4182H45.2375V46.1273ZM45.2375 46.4182H45.5284V46.7091H45.2375V46.4182ZM45.5284 46.7091H45.8193V47H45.5284V46.7091ZM45.8193 46.4182H46.1102V46.7091H45.8193V46.4182ZM45.8193 46.1273H46.1102V46.4182H45.8193V46.1273ZM45.8193 45.8364H46.1102V46.1273H45.8193V45.8364ZM45.8193 45.5455H46.1102V45.8364H45.8193V45.5455ZM46.1102 46.7091H46.4011V47H46.1102V46.7091ZM46.4011 46.4182H46.692V46.7091H46.4011V46.4182ZM46.4011 46.1273H46.692V46.4182H46.4011V46.1273ZM46.4011 45.8364H46.692V46.1273H46.4011V45.8364ZM46.4011 45.5455H46.692V45.8364H46.4011V45.5455ZM46.9844 45.5455H47.2753V45.8364H46.9844V45.5455ZM46.9844 45.8364H47.2753V46.1273H46.9844V45.8364ZM46.9844 46.1273H47.2753V46.4182H46.9844V46.1273ZM46.9844 46.4182H47.2753V46.7091H46.9844V46.4182ZM46.9844 46.7091H47.2753V47H46.9844V46.7091ZM47.2753 45.8364H47.5662V46.1273H47.2753V45.8364ZM47.5662 46.1273H47.8571V46.4182H47.5662V46.1273ZM47.5662 46.4182H47.8571V46.7091H47.5662V46.4182ZM47.5662 46.7091H47.8571V47H47.5662V46.7091ZM48.1469 46.7091H48.4378V47H48.1469V46.7091ZM48.1469 46.4182H48.4378V46.7091H48.1469V46.4182ZM48.1469 46.1273H48.4378V46.4182H48.1469V46.1273ZM48.1469 45.5455H48.4378V45.8364H48.1469V45.5455ZM48.7281 45.5455H49.019V45.8364H48.7281V45.5455ZM48.7281 45.8364H49.019V46.1273H48.7281V45.8364ZM48.7281 46.1273H49.019V46.4182H48.7281V46.1273ZM48.7281 46.4182H49.019V46.7091H48.7281V46.4182ZM48.7281 46.7091H49.019V47H48.7281V46.7091ZM49.019 46.7091H49.3099V47H49.019V46.7091ZM49.019 45.8364H49.3099V46.1273H49.019V45.8364ZM49.8909 45.8364H50.1818V46.1273H49.8909V45.8364ZM50.1818 46.1273H50.4727V46.4182H50.1818V46.1273ZM49.6 46.1273H49.8909V46.4182H49.6V46.1273ZM50.1818 46.4182H50.4727V46.7091H50.1818V46.4182ZM49.8909 46.4182H50.1818V46.7091H49.8909V46.4182ZM49.6 46.4182H49.8909V46.7091H49.6V46.4182ZM49.6 46.7091H49.8909V47H49.6V46.7091ZM49.8909 47H50.1818V47.2909H49.8909V47ZM45.5297 49.7091H45.8206V50H45.5297V49.7091ZM45.5297 49.4182H45.8206V49.7091H45.5297V49.4182ZM45.5297 49.1273H45.8206V49.4182H45.5297V49.1273ZM45.5297 48.8364H45.8206V49.1273H45.5297V48.8364ZM45.5297 48.5455H45.8206V48.8364H45.5297V48.5455ZM45.8206 48.5455H46.1115V48.8364H45.8206V48.5455ZM45.8206 49.1273H46.1115V49.4182H45.8206V49.1273ZM46.1115 48.5455H46.4024V48.8364H46.1115V48.5455ZM46.6922 48.5455H46.9831V48.8364H46.6922V48.5455ZM46.6922 48.8364H46.9831V49.1273H46.6922V48.8364ZM46.6922 49.1273H46.9831V49.4182H46.6922V49.1273ZM46.6922 49.4182H46.9831V49.7091H46.6922V49.4182ZM46.6922 49.7091H46.9831V50H46.6922V49.7091ZM47.2734 49.1273H47.5643V49.4182H47.2734V49.1273ZM47.2734 49.4182H47.5643V49.7091H47.2734V49.4182ZM47.5643 49.7091H47.8553V50H47.5643V49.7091ZM47.8553 49.4182H48.1462V49.7091H47.8553V49.4182ZM47.8553 49.1273H48.1462V49.4182H47.8553V49.1273ZM47.5643 48.8364H47.8553V49.1273H47.5643V48.8364ZM48.4359 48.8364H48.7268V49.1273H48.4359V48.8364ZM48.4359 49.1273H48.7268V49.4182H48.4359V49.1273ZM48.4359 49.4182H48.7268V49.7091H48.4359V49.4182ZM48.7268 49.7091H49.0178V50H48.7268V49.7091ZM49.0178 49.7091H49.3087V50H49.0178V49.7091ZM49.0178 49.4182H49.3087V49.7091H49.0178V49.4182ZM49.0178 49.1273H49.3087V49.4182H49.0178V49.1273ZM49.0178 48.8364H49.3087V49.1273H49.0178V48.8364ZM49.5984 48.8364H49.8893V49.1273H49.5984V48.8364ZM49.5984 49.1273H49.8893V49.4182H49.5984V49.1273ZM49.5984 49.4182H49.8893V49.7091H49.5984V49.4182ZM49.5984 49.7091H49.8893V50H49.5984V49.7091ZM49.8893 48.8364H50.1803V49.1273H49.8893V48.8364Z" fill="black"/>
</g>
<rect x="36" y="26" width="25" height="11" rx="2" fill="#986205"/>
<defs>
<filter id="filter0_f_264_257" x="45.0375" y="45.3454" width="5.63511" height="4.85459" filterUnits="userSpaceOnUse" color-interpolation-filters="sRGB">
<feFlood flood-opacity="0" result="BackgroundImageFix"/>
<feBlend mode="normal" in="SourceGraphic" in2="BackgroundImageFix" result="shape"/>
<feGaussianBlur stdDeviation="0.1" result="effect1_foregroundBlur_264_257"/>
</filter>
</defs>
</svg>
