<svg width="96" height="96" viewBox="0 0 96 96" fill="none" xmlns="http://www.w3.org/2000/svg">
<rect width="96" height="96" fill="white"/>
<rect x="28" y="18" width="40" height="60" rx="5" fill="#F0EADF"/>
<g filter="url(#filter0_f_264_272)">
<path d="M45.2375 45.5455H45.5284V45.8364H45.2375V45.5455ZM45.2375 45.8364H45.5284V46.1273H45.2375V45.8364ZM45.2375 46.1273H45.5284V46.4182H45.2375V46.1273ZM45.2375 46.4182H45.5284V46.7091H45.2375V46.4182ZM45.5284 46.7091H45.8193V47H45.5284V46.7091ZM45.8193 46.4182H46.1102V46.7091H45.8193V46.4182ZM45.8193 46.1273H46.1102V46.4182H45.8193V46.1273ZM45.8193 45.8364H46.1102V46.1273H45.8193V45.8364ZM45.8193 45.5455H46.1102V45.8364H45.8193V45.5455ZM46.1102 46.7091H46.4011V47H46.1102V46.7091ZM46.4011 46.4182H46.692V46.7091H46.4011V46.4182ZM46.4011 46.1273H46.692V46.4182H46.4011V46.1273ZM46.4011 45.8364H46.692V46.1273H46.4011V45.8364ZM46.4011 45.5455H46.692V45.8364H46.4011V45.5455ZM46.9844 46.7091H47.2753V47H46.9844V46.7091ZM46.9844 46.4182H47.2753V46.7091H46.9844V46.4182ZM46.9844 46.1273H47.2753V46.4182H46.9844V46.1273ZM46.9844 45.8364H47.2753V46.1273H46.9844V45.8364ZM46.9844 45.5455H47.2753V45.8364H46.9844V45.5455ZM47.2753 46.1273H47.5662V46.4182H47.2753V46.1273ZM47.5662 45.5455H47.8571V45.8364H47.5662V45.5455ZM47.5662 45.8364H47.8571V46.1273H47.5662V45.8364ZM47.5662 46.1273H47.8571V46.4182H47.5662V46.1273ZM47.5662 46.4182H47.8571V46.7091H47.5662V46.4182ZM47.5662 46.7091H47.8571V47H47.5662V46.7091ZM48.1469 46.7091H48.4378V47H48.1469V46.7091ZM48.1469 46.4182H48.4378V46.7091H48.1469V46.4182ZM48.1469 46.1273H48.4378V46.4182H48.1469V46.1273ZM48.1469 45.5455H48.4378V45.8364H48.1469V45.5455ZM48.7281 45.5455H49.019V45.8364H48.7281V45.5455ZM48.7281 45.8364H49.019V46.1273H48.7281V45.8364ZM48.7281 46.1273H49.019V46.4182H48.7281V46.1273ZM48.7281 46.4182H49.019V46.7091H48.7281V46.4182ZM48.7281 46.7091H49.019V47H48.7281V46.7091ZM49.019 46.7091H49.3099V47H49.019V46.7091ZM49.019 45.8364H49.3099V46.1273H49.019V45.8364ZM49.8909 45.8364H50.1818V46.1273H49.8909V45.8364ZM50.1818 46.1273H50.4727V46.4182H50.1818V46.1273ZM49.6 46.1273H49.8909V46.4182H49.6V46.1273ZM50.1818 46.4182H50.4727V46.7091H50.1818V46.4182ZM49.8909 46.4182H50.1818V46.7091H49.8909V46.4182ZM49.6 46.4182H49.8909V46.7091H49.6V46.4182ZM49.6 46.7091H49.8909V47H49.6V46.7091ZM49.8909 47H50.1818V47.2909H49.8909V47ZM45.8209 48.5455H46.1118V48.8364H45.8209V48.5455ZM45.53 48.5455H45.8209V48.8364H45.53V48.5455ZM45.2391 48.8364H45.53V49.1273H45.2391V48.8364ZM45.2391 49.1273H45.53V49.4182H45.2391V49.1273ZM45.53 49.1273H45.8209V49.4182H45.53V49.1273ZM45.8209 49.1273H46.1118V49.4182H45.8209V49.1273ZM45.8209 49.4182H46.1118V49.7091H45.8209V49.4182ZM45.8209 49.7091H46.1118V50H45.8209V49.7091ZM45.53 49.7091H45.8209V50H45.53V49.7091ZM45.2391 49.7091H45.53V50H45.2391V49.7091ZM45.2391 48.5455H45.53V48.8364H45.2391V48.5455ZM46.4016 48.8364H46.6925V49.1273H46.4016V48.8364ZM46.4016 49.1273H46.6925V49.4182H46.4016V49.1273ZM46.4016 49.4182H46.6925V49.7091H46.4016V49.4182ZM46.6925 49.7091H46.9834V50H46.6925V49.7091ZM46.9834 49.7091H47.2743V50H46.9834V49.7091ZM46.9834 49.4182H47.2743V49.7091H46.9834V49.4182ZM46.9834 49.1273H47.2743V49.4182H46.9834V49.1273ZM46.9834 48.8364H47.2743V49.1273H46.9834V48.8364ZM48.1459 48.8364H48.4368V49.1273H48.1459V48.8364ZM48.1459 49.1273H48.4368V49.4182H48.1459V49.1273ZM48.1459 49.4182H48.4368V49.7091H48.1459V49.4182ZM48.1459 49.7091H48.4368V50H48.1459V49.7091ZM48.1459 50H48.4368V50.2909H48.1459V50ZM47.855 50H48.1459V50.2909H47.855V50ZM47.5641 50H47.855V50.2909H47.5641V50ZM47.855 48.8364H48.1459V49.1273H47.855V48.8364ZM47.5641 49.1273H47.855V49.4182H47.5641V49.1273ZM47.5641 49.4182H47.855V49.7091H47.5641V49.4182ZM49.3084 48.8364H49.5993V49.1273H49.3084V48.8364ZM49.3084 49.1273H49.5993V49.4182H49.3084V49.1273ZM49.3084 49.4182H49.5993V49.7091H49.3084V49.4182ZM49.3084 49.7091H49.5993V50H49.3084V49.7091ZM49.0175 48.8364H49.3084V49.1273H49.0175V48.8364ZM49.0175 49.7091H49.3084V50H49.0175V49.7091ZM48.7266 49.1273H49.0175V49.4182H48.7266V49.1273ZM48.7266 49.4182H49.0175V49.7091H48.7266V49.4182ZM49.8891 48.8364H50.18V49.1273H49.8891V48.8364ZM49.8891 49.1273H50.18V49.4182H49.8891V49.1273ZM49.8891 49.4182H50.18V49.7091H49.8891V49.4182ZM49.8891 49.7091H50.18V50H49.8891V49.7091ZM50.18 48.8364H50.4709V49.1273H50.18V48.8364Z" fill="black"/>
</g>
<rect x="28" y="71" width="40" height="1" fill="white"/>
<rect x="28" y="23" width="40" height="1" fill="white"/>
<defs>
<filter id="filter0_f_264_272" x="45.0375" y="45.3454" width="5.63511" height="5.14561" filterUnits="userSpaceOnUse" color-interpolation-filters="sRGB">
<feFlood flood-opacity="0" result="BackgroundImageFix"/>
<feBlend mode="normal" in="SourceGraphic" in2="BackgroundImageFix" result="shape"/>
<feGaussianBlur stdDeviation="0.1" result="effect1_foregroundBlur_264_272"/>
</filter>
</defs>
</svg>
