<svg width="96" height="96" viewBox="0 0 96 96" fill="none" xmlns="http://www.w3.org/2000/svg">
<rect width="96" height="96" fill="white"/>
<rect x="10" y="29.8088" width="76.8371" height="41.191" rx="7.92135" fill="#C4A05E"/>
<ellipse cx="22.8062" cy="35.0899" rx="12.8062" ry="11.0899" fill="#C4A05E"/>
<ellipse cx="48.4185" cy="35.0899" rx="12.8062" ry="11.0899" fill="#C4A05E"/>
<ellipse cx="74.0309" cy="35.0899" rx="12.8062" ry="11.0899" fill="#C4A05E"/>
<path d="M10 40.6348C10 39.1766 11.1822 37.9944 12.6404 37.9944H84.1966C85.6549 37.9944 86.8371 39.1766 86.8371 40.6348V63.0787C86.8371 67.4535 83.2906 71 78.9157 71H17.9213C13.5465 71 10 67.4535 10 63.0787V40.6348Z" fill="#928585" fill-opacity="0.5"/>
<rect x="33.764" y="49.6123" width="29.8371" height="11.3539" fill="white"/>
<g filter="url(#filter0_f_264_3)">
<path d="M42.2135 53.9003H42.7896V54.4764H42.2135V53.9003ZM42.2135 54.4764H42.7896V55.0525H42.2135V54.4764ZM42.2135 55.0525H42.7896V55.6286H42.2135V55.0525ZM42.2135 55.6286H42.7896V56.2047H42.2135V55.6286ZM42.7896 56.2047H43.3657V56.7808H42.7896V56.2047ZM43.3657 55.6286H43.9418V56.2047H43.3657V55.6286ZM43.3657 55.0525H43.9418V55.6286H43.3657V55.0525ZM43.3657 54.4764H43.9418V55.0525H43.3657V54.4764ZM43.3657 53.9003H43.9418V54.4764H43.3657V53.9003ZM43.9418 56.2047H44.5179V56.7808H43.9418V56.2047ZM44.5179 55.6286H45.094V56.2047H44.5179V55.6286ZM44.5179 55.0525H45.094V55.6286H44.5179V55.0525ZM44.5179 54.4764H45.094V55.0525H44.5179V54.4764ZM44.5179 53.9003H45.094V54.4764H44.5179V53.9003ZM45.6729 53.9003H46.249V54.4764H45.6729V53.9003ZM45.6729 54.4764H46.249V55.0525H45.6729V54.4764ZM45.6729 55.0525H46.249V55.6286H45.6729V55.0525ZM45.6729 55.6286H46.249V56.2047H45.6729V55.6286ZM45.6729 56.2047H46.249V56.7808H45.6729V56.2047ZM46.249 54.4764H46.8251V55.0525H46.249V54.4764ZM46.8251 55.0525H47.4012V55.6286H46.8251V55.0525ZM46.8251 55.6286H47.4012V56.2047H46.8251V55.6286ZM46.8251 56.2047H47.4012V56.7808H46.8251V56.2047ZM47.975 56.2047H48.5511V56.7808H47.975V56.2047ZM47.975 55.6286H48.5511V56.2047H47.975V55.6286ZM47.975 55.0525H48.5511V55.6286H47.975V55.0525ZM47.975 53.9003H48.5511V54.4764H47.975V53.9003ZM49.1261 53.9003H49.7022V54.4764H49.1261V53.9003ZM49.1261 54.4764H49.7022V55.0525H49.1261V54.4764ZM49.1261 55.0525H49.7022V55.6286H49.1261V55.0525ZM49.1261 55.6286H49.7022V56.2047H49.1261V55.6286ZM49.1261 56.2047H49.7022V56.7808H49.1261V56.2047ZM49.7022 56.2047H50.2783V56.7808H49.7022V56.2047ZM49.7022 54.4764H50.2783V55.0525H49.7022V54.4764ZM51.4288 54.4764H52.0049V55.0525H51.4288V54.4764ZM52.0049 55.0525H52.581V55.6286H52.0049V55.0525ZM50.8527 55.0525H51.4288V55.6286H50.8527V55.0525ZM52.0049 55.6286H52.581V56.2047H52.0049V55.6286ZM51.4288 55.6286H52.0049V56.2047H51.4288V55.6286ZM50.8527 55.6286H51.4288V56.2047H50.8527V55.6286ZM50.8527 56.2047H51.4288V56.7808H50.8527V56.2047ZM51.4288 56.7808H52.0049V57.3569H51.4288V56.7808Z" fill="#F24822"/>
</g>
<defs>
<filter id="filter0_f_264_3" x="41.9135" y="53.6004" width="10.9676" height="4.05654" filterUnits="userSpaceOnUse" color-interpolation-filters="sRGB">
<feFlood flood-opacity="0" result="BackgroundImageFix"/>
<feBlend mode="normal" in="SourceGraphic" in2="BackgroundImageFix" result="shape"/>
<feGaussianBlur stdDeviation="0.15" result="effect1_foregroundBlur_264_3"/>
</filter>
</defs>
</svg>
