<svg width="96" height="96" viewBox="0 0 96 96" fill="none" xmlns="http://www.w3.org/2000/svg">
<rect width="96" height="96" fill="white"/>
<rect x="28" y="18" width="40" height="60" rx="5" fill="#986205"/>
<g filter="url(#filter0_f_264_262)">
<path d="M45.0922 45.5455H45.3831V45.8364H45.0922V45.5455ZM45.0922 45.8364H45.3831V46.1273H45.0922V45.8364ZM45.0922 46.1273H45.3831V46.4182H45.0922V46.1273ZM45.0922 46.4182H45.3831V46.7091H45.0922V46.4182ZM45.3831 46.7091H45.674V47H45.3831V46.7091ZM45.674 46.4182H45.9649V46.7091H45.674V46.4182ZM45.674 46.1273H45.9649V46.4182H45.674V46.1273ZM45.674 45.8364H45.9649V46.1273H45.674V45.8364ZM45.674 45.5455H45.9649V45.8364H45.674V45.5455ZM45.9649 46.7091H46.2558V47H45.9649V46.7091ZM46.2558 46.4182H46.5467V46.7091H46.2558V46.4182ZM46.2558 46.1273H46.5467V46.4182H46.2558V46.1273ZM46.2558 45.8364H46.5467V46.1273H46.2558V45.8364ZM46.2558 45.5455H46.5467V45.8364H46.2558V45.5455ZM46.8391 45.5455H47.13V45.8364H46.8391V45.5455ZM46.8391 45.8364H47.13V46.1273H46.8391V45.8364ZM46.8391 46.1273H47.13V46.4182H46.8391V46.1273ZM46.8391 46.4182H47.13V46.7091H46.8391V46.4182ZM46.8391 46.7091H47.13V47H46.8391V46.7091ZM47.13 45.8364H47.4209V46.1273H47.13V45.8364ZM47.4209 46.1273H47.7118V46.4182H47.4209V46.1273ZM47.4209 46.4182H47.7118V46.7091H47.4209V46.4182ZM47.4209 46.7091H47.7118V47H47.4209V46.7091ZM48.0016 46.1273H48.2925V46.4182H48.0016V46.1273ZM48.0016 46.4182H48.2925V46.7091H48.0016V46.4182ZM48.2925 46.7091H48.5834V47H48.2925V46.7091ZM48.5834 46.4182H48.8743V46.7091H48.5834V46.4182ZM48.5834 46.1273H48.8743V46.4182H48.5834V46.1273ZM48.2925 45.8364H48.5834V46.1273H48.2925V45.8364ZM49.1641 45.5455H49.455V45.8364H49.1641V45.5455ZM49.1641 45.8364H49.455V46.1273H49.1641V45.8364ZM49.1641 46.1273H49.455V46.4182H49.1641V46.1273ZM49.1641 46.4182H49.455V46.7091H49.1641V46.4182ZM49.1641 46.7091H49.455V47H49.1641V46.7091ZM50.0362 45.8364H50.3271V46.1273H50.0362V45.8364ZM50.3271 46.1273H50.618V46.4182H50.3271V46.1273ZM49.7453 46.1273H50.0362V46.4182H49.7453V46.1273ZM50.3271 46.4182H50.618V46.7091H50.3271V46.4182ZM50.0362 46.4182H50.3271V46.7091H50.0362V46.4182ZM49.7453 46.4182H50.0362V46.7091H49.7453V46.4182ZM49.7453 46.7091H50.0362V47H49.7453V46.7091ZM50.0362 47H50.3271V47.2909H50.0362V47ZM44.9469 48.5455H45.2378V48.8364H44.9469V48.5455ZM44.9469 48.8364H45.2378V49.1273H44.9469V48.8364ZM44.9469 49.1273H45.2378V49.4182H44.9469V49.1273ZM44.9469 49.4182H45.2378V49.7091H44.9469V49.4182ZM45.2378 49.7091H45.5287V50H45.2378V49.7091ZM45.5287 49.4182H45.8196V49.7091H45.5287V49.4182ZM45.5287 49.1273H45.8196V49.4182H45.5287V49.1273ZM45.5287 48.8364H45.8196V49.1273H45.5287V48.8364ZM45.5287 48.5455H45.8196V48.8364H45.5287V48.5455ZM45.8196 49.7091H46.1105V50H45.8196V49.7091ZM46.1105 49.4182H46.4014V49.7091H46.1105V49.4182ZM46.1105 49.1273H46.4014V49.4182H46.1105V49.1273ZM46.1105 48.8364H46.4014V49.1273H46.1105V48.8364ZM46.1105 48.5455H46.4014V48.8364H46.1105V48.5455ZM46.6937 48.5455H46.9847V48.8364H46.6937V48.5455ZM46.6937 48.8364H46.9847V49.1273H46.6937V48.8364ZM46.6937 49.1273H46.9847V49.4182H46.6937V49.1273ZM46.6937 49.4182H46.9847V49.7091H46.6937V49.4182ZM46.6937 49.7091H46.9847V50H46.6937V49.7091ZM46.9847 48.8364H47.2756V49.1273H46.9847V48.8364ZM47.2756 49.1273H47.5665V49.4182H47.2756V49.1273ZM47.2756 49.4182H47.5665V49.7091H47.2756V49.4182ZM47.2756 49.7091H47.5665V50H47.2756V49.7091ZM48.1472 48.8364H48.4381V49.1273H48.1472V48.8364ZM48.4381 49.1273H48.729V49.4182H48.4381V49.1273ZM47.8562 49.1273H48.1472V49.4182H47.8562V49.1273ZM48.4381 49.4182H48.729V49.7091H48.4381V49.4182ZM48.1472 49.4182H48.4381V49.7091H48.1472V49.4182ZM47.8562 49.4182H48.1472V49.7091H47.8562V49.4182ZM47.8562 49.7091H48.1472V50H47.8562V49.7091ZM48.1472 50H48.4381V50.2909H48.1472V50ZM49.6006 48.8364H49.8915V49.1273H49.6006V48.8364ZM49.6006 49.1273H49.8915V49.4182H49.6006V49.1273ZM49.6006 49.4182H49.8915V49.7091H49.6006V49.4182ZM49.6006 49.7091H49.8915V50H49.6006V49.7091ZM49.3097 48.8364H49.6006V49.1273H49.3097V48.8364ZM49.3097 49.7091H49.6006V50H49.3097V49.7091ZM49.0188 49.1273H49.3097V49.4182H49.0188V49.1273ZM49.0188 49.4182H49.3097V49.7091H49.0188V49.4182ZM50.1812 48.5455H50.4722V48.8364H50.1812V48.5455ZM50.1812 48.8364H50.4722V49.1273H50.1812V48.8364ZM50.1812 49.1273H50.4722V49.4182H50.1812V49.1273ZM50.1812 49.4182H50.4722V49.7091H50.1812V49.4182ZM50.1812 49.7091H50.4722V50H50.1812V49.7091ZM50.4722 49.7091H50.7631V50H50.4722V49.7091ZM50.4722 48.8364H50.7631V49.1273H50.4722V48.8364Z" fill="black"/>
</g>
<rect x="36" y="26" width="25" height="11" rx="2" fill="#F49B00"/>
<defs>
<filter id="filter0_f_264_262" x="44.7468" y="45.3454" width="6.21641" height="5.14561" filterUnits="userSpaceOnUse" color-interpolation-filters="sRGB">
<feFlood flood-opacity="0" result="BackgroundImageFix"/>
<feBlend mode="normal" in="SourceGraphic" in2="BackgroundImageFix" result="shape"/>
<feGaussianBlur stdDeviation="0.1" result="effect1_foregroundBlur_264_262"/>
</filter>
</defs>
</svg>
